<svg width="40" height="40" viewBox="0 0 40 40" fill="none" xmlns="http://www.w3.org/2000/svg">
	<path d="M19.9999 15.0984V10.8334C20.0005 10.504 20.0985 10.1821 20.2816 9.90838C20.4648 9.63463 20.7248 9.42121 21.0291 9.29502C21.3333 9.16883 21.6681 9.13552 21.9913 9.19929C22.3144 9.26306 22.6114 9.42105 22.8449 9.65336L33.3333 20L22.8449 30.345C22.6905 30.5003 22.5069 30.6236 22.3047 30.7077C22.1025 30.7918 21.8856 30.8351 21.6666 30.8351C21.4476 30.8351 21.2307 30.7918 21.0285 30.7077C20.8263 30.6236 20.6427 30.5003 20.4883 30.345C20.3334 30.1903 20.2106 30.0067 20.1268 29.8045C20.043 29.6023 19.9999 29.3856 19.9999 29.1667V25.0184C15.4166 25.1317 10.4083 25.9617 6.66659 31.6667V30C6.66659 22.2784 12.4999 15.9284 19.9999 15.0984Z" fill="#16BD4F" />
</svg>
