<svg width="150" height="151" viewBox="0 0 150 151" fill="none" xmlns="http://www.w3.org/2000/svg">
	<g clip-path="url(#clip0_2227_3311)">
		<path d="M13.7045 33.0826V60.1869H0V0.634521H20.7864C22.9182 0.634521 24.7364 0.915536 26.25 1.47757C27.7636 2.03959 28.9545 2.77386 29.8318 3.68489C30.7045 4.59592 31.3909 5.80156 31.8909 7.31088C32.3909 8.8202 32.7182 10.325 32.8727 11.8343C33.0273 13.3436 33.1045 15.1657 33.1045 17.3096C33.1045 18.4291 33.0864 19.3447 33.0455 20.0563C33.0045 20.7679 32.8636 21.6653 32.6227 22.7486C32.3773 23.8318 32.0409 24.7383 31.6045 25.459C31.1682 26.1842 30.5091 26.8913 29.6227 27.5893C28.7364 28.2873 27.6636 28.8221 26.4091 29.1983C27.6682 29.4249 28.7045 29.8419 29.5273 30.4493C30.35 31.0611 30.9364 31.8135 31.3 32.711C31.6591 33.6084 31.9045 34.4379 32.0318 35.1948C32.1591 35.9562 32.2227 36.8083 32.2227 37.7556C32.2227 47.6002 32.1727 55.0743 32.0682 60.1869H18.8273V36.9715C18.8273 36.0514 18.7318 35.3126 18.5409 34.7642C18.35 34.2158 17.9864 33.826 17.4636 33.5857C16.9364 33.3501 16.4318 33.205 15.9455 33.1552C15.4591 33.1053 14.7136 33.0826 13.7136 33.0826H13.7045ZM13.7818 11.6621V22.7667H17.1682C18.9636 22.7667 19.8636 20.9492 19.8636 17.3096C19.8636 14.8937 19.5091 13.3482 18.8045 12.6728C18.1 12.002 16.6682 11.6621 14.5136 11.6621H13.7818Z" fill="white" />
		<path d="M37.5684 44.1102V15.7368C37.5684 10.7783 38.9456 6.93471 41.7047 4.20615C44.4638 1.47759 48.6138 0.0725199 54.1593 0C59.8547 0.0725199 64.082 1.47759 66.8411 4.20615C69.6002 6.93471 70.9774 10.7783 70.9774 15.7368V44.1102C70.9774 46.526 70.6638 48.7288 70.0365 50.7095C69.4093 52.6902 68.4502 54.4534 67.1684 55.999C65.8865 57.5445 64.1456 58.7411 61.9547 59.5887C59.7593 60.4363 57.2411 60.8215 54.3911 60.749C51.3865 60.8215 48.7911 60.4363 46.5956 59.5887C44.4002 58.7411 42.6638 57.5445 41.382 55.999C40.1002 54.4534 39.1411 52.6902 38.5138 50.7095C37.8865 48.7288 37.5729 46.5306 37.5729 44.1102H37.5684ZM54.2729 49.0824C54.7593 49.0824 55.1911 48.9872 55.5638 48.8014C55.9365 48.6155 56.232 48.33 56.4502 47.9402C56.6684 47.5549 56.8411 47.1878 56.9684 46.8388C57.0956 46.4898 57.1865 46.0229 57.2365 45.4382C57.2865 44.8535 57.3184 44.4048 57.332 44.0921C57.3456 43.7794 57.3502 43.3488 57.3502 42.8003V18.5787C57.3502 18.4291 57.3547 18.13 57.3684 17.6813C57.382 17.2325 57.382 16.8971 57.3684 16.6705C57.3547 16.4439 57.3411 16.1175 57.332 15.6779C57.3184 15.2428 57.282 14.9074 57.2184 14.6671C57.1547 14.4315 57.0775 14.1323 56.9865 13.7697C56.8956 13.4071 56.7729 13.1352 56.6229 12.9493C56.4684 12.7635 56.2911 12.5641 56.082 12.351C55.8774 12.138 55.6184 11.9884 55.3138 11.9023C55.0047 11.8162 54.6593 11.7709 54.2729 11.7709C53.732 11.7709 53.2638 11.857 52.8684 12.0338C52.4684 12.2105 52.1547 12.487 51.9274 12.8768C51.6956 13.2621 51.5047 13.6111 51.3502 13.9238C51.1956 14.2366 51.0956 14.6943 51.0411 15.3062C50.9911 15.9181 50.9638 16.3532 50.9638 16.6161V42.3516C50.9638 42.9 50.9684 43.3352 50.982 43.6615C50.9956 43.9878 51.0275 44.4592 51.0775 45.0802C51.1275 45.7057 51.2229 46.2088 51.3684 46.594C51.5093 46.9793 51.6956 47.3872 51.9274 47.8087C52.1593 48.2348 52.4729 48.5521 52.8684 48.7606C53.2638 48.9736 53.7365 49.0778 54.2729 49.0778V49.0824Z" fill="white" />
		<path d="M109.586 34.5421V45.7917C109.586 50.9769 108.073 54.7842 105.046 57.2136C102.018 59.643 97.7819 60.8577 92.3455 60.8577C87.5228 60.8577 83.5955 59.5161 80.5683 56.8374C77.541 54.1587 76.0273 50.3514 76.0273 45.4155V17.7945C76.0273 11.8887 77.3683 7.46951 80.0501 4.54152C82.7319 1.61353 86.9319 0.149536 92.6546 0.149536C94.991 0.149536 97.1455 0.430551 99.1228 0.99258C101.1 1.55461 102.85 2.38406 104.377 3.47639C105.905 4.57325 107.105 6.01005 107.977 7.79585C108.85 9.57712 109.286 11.6258 109.286 13.9464V24.4528H95.891V17.5362C95.891 13.9736 94.8137 12.1924 92.6592 12.1924C91.3773 12.1924 90.5273 12.5867 90.1183 13.3708C89.7092 14.1549 89.5001 15.2473 89.5001 16.6433V44.7901C89.5001 46.0093 89.791 47.0699 90.3683 47.9673C90.9455 48.8648 91.7092 49.3135 92.6592 49.3135C93.5319 49.3135 94.2864 48.9826 94.9319 48.3209C95.5728 47.6591 95.8955 46.4852 95.8955 44.7901V34.5466H109.6L109.586 34.5421Z" fill="white" />
		<path d="M134.796 0.634521H148.423L140.841 27.8884L150 60.1869H135.95L128.559 31.3286V60.1869H115.086V0.634521H128.482V24.4482L134.796 0.634521Z" fill="white" />
		<path d="M0 114.758V63.9218H15.2773C17.2909 63.9218 19.0545 64.1756 20.5682 64.6877C22.0818 65.1999 23.4136 66.0294 24.5773 67.1761C25.7364 68.3228 26.6182 69.9137 27.2227 71.9488C27.8227 73.9794 28.1273 76.445 28.1273 79.3368C28.1273 81.8251 27.9455 83.9599 27.5864 85.7366C27.2273 87.5134 26.6045 89.0907 25.7318 90.4776C24.8545 91.86 23.6136 92.898 22.0045 93.5869C20.3955 94.2804 18.4182 94.6249 16.0727 94.6249H11.3727V114.763H0V114.758ZM11.3682 73.1771V85.4647H12.0273C12.6409 85.4647 13.1045 85.4466 13.4227 85.4148C13.7409 85.3831 14.1136 85.3106 14.5409 85.1927C14.9682 85.0749 15.2864 84.8845 15.4955 84.6171C15.7045 84.3497 15.9182 83.9916 16.1364 83.5339C16.3545 83.0761 16.5045 82.4868 16.5818 81.7616C16.6591 81.0364 16.6955 80.1662 16.6955 79.1464C16.6955 76.9119 16.3955 75.3618 15.7909 74.487C15.1864 73.6168 14.1409 73.1771 12.6545 73.1771H11.3727H11.3682Z" fill="white" />
		<path d="M52.5408 63.9263L58.3226 114.763H47.1499L46.3272 107.103H40.4772L39.7544 114.763H28.5181L34.4317 63.9263H52.5362H52.5408ZM43.8999 73.4672H42.8499L41.3044 97.8475H45.4453L43.8999 73.4672Z" fill="white" />
		<path d="M61.8726 114.758V63.9218H77.1498C79.1635 63.9218 80.9271 64.1756 82.4407 64.6877C83.9544 65.1999 85.2862 66.0294 86.4498 67.1761C87.6089 68.3228 88.4907 69.9137 89.0953 71.9488C89.6953 73.9794 89.9998 76.445 89.9998 79.3368C89.9998 81.8251 89.818 83.9599 89.4589 85.7366C89.0998 87.5134 88.4771 89.0907 87.6044 90.4776C86.7271 91.86 85.4862 92.898 83.8771 93.5869C82.268 94.2804 80.2907 94.6249 77.9453 94.6249H73.2453V114.763H61.8771L61.8726 114.758ZM73.2407 73.1771V85.4647H73.8998C74.5135 85.4647 74.9771 85.4466 75.2953 85.4148C75.6135 85.3831 75.9862 85.3106 76.4135 85.1927C76.8407 85.0749 77.1589 84.8845 77.368 84.6171C77.5771 84.3497 77.7907 83.9916 78.0089 83.5339C78.2271 83.0761 78.3771 82.4868 78.4544 81.7616C78.5317 81.0364 78.568 80.1662 78.568 79.1464C78.568 76.9119 78.268 75.3618 77.6635 74.487C77.0589 73.6168 76.0135 73.1771 74.5271 73.1771H73.2453H73.2407Z" fill="white" />
		<path d="M93.418 114.758V63.9218H116.55V73.7845H105.182V83.7106H116.091V93.2515H105.182V104.837H117.304V114.763H93.418V114.758Z" fill="white" />
		<path d="M133.441 91.6243V114.763H121.746V63.9263H139.491C141.309 63.9263 142.864 64.1665 144.159 64.6424C145.45 65.1228 146.468 65.7483 147.214 66.5234C147.959 67.2984 148.546 68.3319 148.973 69.6191C149.4 70.9063 149.677 72.1935 149.809 73.4808C149.941 74.768 150.005 76.3272 150.005 78.1538C150.005 79.1101 149.987 79.8942 149.955 80.4971C149.923 81.1044 149.8 81.8704 149.596 82.795C149.387 83.7197 149.096 84.4902 148.723 85.1066C148.35 85.723 147.787 86.3304 147.032 86.9241C146.277 87.5179 145.359 87.9757 144.287 88.2975C145.359 88.4879 146.246 88.8459 146.95 89.3672C147.65 89.8884 148.155 90.532 148.464 91.298C148.768 92.064 148.977 92.7711 149.087 93.4192C149.196 94.0674 149.25 94.7971 149.25 95.6039C149.25 104.007 149.205 110.389 149.118 114.749H137.814V94.9331C137.814 94.1444 137.732 93.5189 137.568 93.0521C137.405 92.5852 137.096 92.2498 136.65 92.0459C136.2 91.8419 135.768 91.7241 135.355 91.6787C134.937 91.6379 134.305 91.6153 133.45 91.6153L133.441 91.6243ZM133.505 73.3403V82.8177H136.396C137.927 82.8177 138.696 81.2631 138.696 78.1583C138.696 76.096 138.396 74.7771 137.791 74.2014C137.187 73.6258 135.968 73.3403 134.127 73.3403H133.505Z" fill="white" />
		<path d="M9.43182 151C6.04091 151 3.61818 150.248 2.17273 148.738C0.727273 147.234 0 144.904 0 141.758V138.613H7.22727V141.5C7.22727 143.571 7.80909 144.605 8.97273 144.605C9.51364 144.605 9.94091 144.405 10.25 144.002C10.5591 143.599 10.7182 143.068 10.7182 142.406C10.7182 141.545 10.5955 140.82 10.3545 140.226C10.1136 139.633 9.74545 139.075 9.25455 138.54C8.76364 138.01 7.95455 137.271 6.83636 136.333L3.74091 133.731C1.25 131.646 0 129.294 0 126.67C0 123.819 0.75 121.698 2.25455 120.306C3.75455 118.915 5.82273 118.217 8.45455 118.217H9.74091C10.4182 118.217 11.2909 118.366 12.3591 118.67C13.4273 118.973 14.3727 119.477 15.2045 120.184C16.0364 120.891 16.6591 121.87 17.0727 123.13C17.4864 124.39 17.6955 125.922 17.6955 127.739H10.2818L10.2409 125.804C10.2273 125.441 10.0682 125.12 9.76364 124.834C9.45909 124.553 9.11818 124.412 8.74545 124.412C8.25909 124.412 7.85 124.558 7.50909 124.848C7.16818 125.138 7 125.509 7 125.967C7 126.883 7.68636 127.875 9.05455 128.954L13.4773 132.426C14.1955 132.992 14.8227 133.568 15.3591 134.153C15.8909 134.737 16.3136 135.318 16.6273 135.889C16.9409 136.46 17.1909 136.977 17.3864 137.443C17.5818 137.906 17.7136 138.413 17.7909 138.957C17.8682 139.501 17.9136 139.914 17.9273 140.19C17.9409 140.467 17.95 140.825 17.95 141.269C17.95 142.397 17.8727 143.426 17.7227 144.346C17.5682 145.266 17.3 146.155 16.9136 147.011C16.5273 147.864 16.0182 148.58 15.3864 149.151C14.7545 149.722 13.9409 150.175 12.9364 150.511C11.9318 150.846 10.7636 151.014 9.43636 151.014L9.43182 151Z" fill="white" />
		<path d="M38.2229 136.8V142.873C38.2229 145.67 37.4047 147.728 35.7729 149.037C34.1365 150.347 31.8547 151.005 28.9183 151.005C26.3138 151.005 24.1956 150.284 22.5638 148.838C20.9274 147.392 20.1138 145.339 20.1138 142.674V127.766C20.1138 124.58 20.8365 122.196 22.2865 120.614C23.732 119.032 26.0001 118.244 29.091 118.244C30.3501 118.244 31.5138 118.393 32.582 118.697C33.6501 119.001 34.5956 119.445 35.4183 120.039C36.241 120.632 36.891 121.407 37.3592 122.368C37.832 123.329 38.0638 124.435 38.0638 125.686V131.356H30.8365V127.626C30.8365 125.704 30.2547 124.739 29.091 124.739C28.4001 124.739 27.941 124.952 27.7183 125.373C27.4956 125.795 27.3865 126.384 27.3865 127.136V142.329C27.3865 142.987 27.541 143.562 27.8547 144.043C28.1683 144.528 28.5774 144.768 29.091 144.768C29.5592 144.768 29.9683 144.591 30.3183 144.233C30.6638 143.875 30.8365 143.24 30.8365 142.325V136.795H38.232L38.2229 136.8Z" fill="white" />
		<path d="M41.1909 150.637V118.502H48.2546V150.637H41.1909Z" fill="white" />
		<path d="M60.4909 151C57.1 151 54.6773 150.248 53.2318 148.738C51.7864 147.234 51.0591 144.904 51.0591 141.758V138.613H58.2864V141.5C58.2864 143.571 58.8682 144.605 60.0318 144.605C60.5727 144.605 61 144.405 61.3091 144.002C61.6182 143.599 61.7773 143.068 61.7773 142.406C61.7773 141.545 61.6545 140.82 61.4136 140.226C61.1727 139.633 60.8045 139.075 60.3136 138.54C59.8227 138.01 59.0136 137.271 57.8954 136.333L54.8 133.731C52.3091 131.646 51.0591 129.294 51.0591 126.67C51.0591 123.819 51.8091 121.698 53.3136 120.306C54.8136 118.915 56.8818 118.217 59.5136 118.217H60.8C61.4773 118.217 62.35 118.366 63.4182 118.67C64.4864 118.973 65.4318 119.477 66.2636 120.184C67.0954 120.891 67.7182 121.87 68.1318 123.13C68.5454 124.39 68.7545 125.922 68.7545 127.739H61.3409L61.3 125.804C61.2864 125.441 61.1273 125.12 60.8227 124.834C60.5182 124.553 60.1773 124.412 59.8045 124.412C59.3182 124.412 58.9091 124.558 58.5682 124.848C58.2273 125.138 58.0591 125.509 58.0591 125.967C58.0591 126.883 58.7454 127.875 60.1136 128.954L64.5364 132.426C65.2545 132.992 65.8818 133.568 66.4182 134.153C66.95 134.737 67.3727 135.318 67.6864 135.889C68 136.46 68.25 136.977 68.4454 137.443C68.6409 137.906 68.7727 138.413 68.85 138.957C68.9273 139.501 68.9727 139.914 68.9864 140.19C69 140.467 69.0091 140.825 69.0091 141.269C69.0091 142.397 68.9318 143.426 68.7818 144.346C68.6273 145.266 68.3591 146.155 67.9727 147.011C67.5864 147.864 67.0773 148.58 66.4454 149.151C65.8136 149.722 65 150.175 63.9954 150.511C62.9909 150.846 61.8227 151.014 60.4954 151.014L60.4909 151Z" fill="white" />
		<path d="M80.2453 151C76.8544 151 74.4317 150.248 72.9862 148.738C71.5408 147.234 70.8135 144.904 70.8135 141.758V138.613H78.0408V141.5C78.0408 143.571 78.6226 144.605 79.7862 144.605C80.3271 144.605 80.7544 144.405 81.0635 144.002C81.3726 143.599 81.5317 143.068 81.5317 142.406C81.5317 141.545 81.4089 140.82 81.168 140.226C80.9271 139.633 80.5589 139.075 80.068 138.54C79.5771 138.01 78.768 137.271 77.6498 136.333L74.5544 133.731C72.0635 131.646 70.8135 129.294 70.8135 126.67C70.8135 123.819 71.5635 121.698 73.068 120.306C74.568 118.915 76.6362 118.217 79.268 118.217H80.5544C81.2317 118.217 82.1044 118.366 83.1726 118.67C84.2408 118.973 85.1862 119.477 86.018 120.184C86.8498 120.891 87.4726 121.87 87.8862 123.13C88.2998 124.39 88.5089 125.922 88.5089 127.739H81.0953L81.0544 125.804C81.0408 125.441 80.8817 125.12 80.5771 124.834C80.2726 124.553 79.9317 124.412 79.5589 124.412C79.0726 124.412 78.6635 124.558 78.3226 124.848C77.9817 125.138 77.8135 125.509 77.8135 125.967C77.8135 126.883 78.4998 127.875 79.868 128.954L84.2908 132.426C85.0089 132.992 85.6362 133.568 86.1726 134.153C86.7044 134.737 87.1271 135.318 87.4408 135.889C87.7544 136.46 88.0044 136.977 88.1998 137.443C88.3953 137.906 88.5271 138.413 88.6044 138.957C88.6817 139.501 88.7271 139.914 88.7408 140.19C88.7544 140.467 88.7635 140.825 88.7635 141.269C88.7635 142.397 88.6862 143.426 88.5362 144.346C88.3817 145.266 88.1135 146.155 87.7271 147.011C87.3408 147.864 86.8317 148.58 86.1998 149.151C85.568 149.722 84.7544 150.175 83.7498 150.511C82.7453 150.846 81.5771 151.014 80.2498 151.014L80.2453 151Z" fill="white" />
		<path d="M90.9409 141.962V126.651C90.9409 123.977 91.6864 121.901 93.1727 120.428C94.6591 118.955 96.9 118.198 99.8909 118.158C102.964 118.198 105.245 118.955 106.736 120.428C108.223 121.901 108.968 123.977 108.968 126.651V141.962C108.968 143.268 108.8 144.455 108.459 145.525C108.118 146.594 107.605 147.546 106.914 148.38C106.223 149.214 105.282 149.858 104.1 150.316C102.914 150.773 101.555 150.982 100.018 150.941C98.4 150.982 96.9955 150.773 95.8136 150.316C94.6273 149.858 93.6909 149.214 93 148.38C92.3091 147.546 91.7909 146.594 91.4545 145.525C91.1136 144.455 90.9455 143.268 90.9455 141.962H90.9409ZM99.9545 144.645C100.218 144.645 100.45 144.596 100.65 144.496C100.85 144.396 101.009 144.242 101.127 144.034C101.245 143.825 101.336 143.626 101.409 143.44C101.477 143.249 101.527 143 101.555 142.683C101.582 142.366 101.6 142.125 101.605 141.958C101.609 141.79 101.614 141.559 101.614 141.26V128.188C101.614 128.106 101.614 127.948 101.623 127.703C101.627 127.463 101.627 127.281 101.623 127.159C101.614 127.037 101.609 126.86 101.6 126.624C101.591 126.389 101.573 126.207 101.536 126.08C101.5 125.953 101.459 125.79 101.414 125.595C101.364 125.401 101.3 125.251 101.218 125.151C101.136 125.052 101.036 124.943 100.927 124.829C100.818 124.716 100.677 124.635 100.514 124.589C100.345 124.544 100.159 124.517 99.9545 124.517C99.6636 124.517 99.4091 124.562 99.1955 124.657C98.9818 124.752 98.8091 124.902 98.6864 125.11C98.5636 125.319 98.4591 125.509 98.3727 125.677C98.2909 125.845 98.2364 126.094 98.2046 126.425C98.1773 126.756 98.1636 126.991 98.1636 127.132V141.024C98.1636 141.319 98.1636 141.554 98.1727 141.731C98.1773 141.908 98.1955 142.162 98.2227 142.497C98.25 142.832 98.3045 143.104 98.3773 143.313C98.4545 143.521 98.5545 143.739 98.6773 143.97C98.8 144.197 98.9727 144.369 99.1864 144.487C99.4 144.6 99.6546 144.659 99.9455 144.659L99.9545 144.645Z" fill="white" />
		<path d="M119.545 136.011V150.637H112.15V118.502H123.368C124.518 118.502 125.5 118.652 126.318 118.955C127.136 119.259 127.777 119.653 128.25 120.147C128.723 120.637 129.091 121.29 129.364 122.105C129.632 122.921 129.809 123.733 129.891 124.548C129.973 125.364 130.014 126.348 130.014 127.504C130.014 128.111 130.004 128.605 129.982 128.986C129.959 129.371 129.886 129.851 129.754 130.436C129.623 131.021 129.441 131.51 129.204 131.9C128.968 132.29 128.614 132.675 128.136 133.051C127.659 133.428 127.082 133.718 126.4 133.917C127.077 134.039 127.641 134.262 128.082 134.592C128.523 134.923 128.841 135.327 129.036 135.812C129.232 136.297 129.364 136.741 129.432 137.153C129.5 137.566 129.536 138.024 129.536 138.536C129.536 143.848 129.509 147.882 129.454 150.642H122.309V138.114C122.309 137.616 122.259 137.221 122.154 136.922C122.05 136.628 121.854 136.414 121.573 136.288C121.291 136.161 121.014 136.084 120.75 136.056C120.486 136.029 120.086 136.016 119.545 136.016V136.011ZM119.586 124.453V130.445H121.414C122.382 130.445 122.868 129.462 122.868 127.499C122.868 126.194 122.677 125.36 122.295 124.997C121.914 124.635 121.141 124.453 119.977 124.453H119.582H119.586Z" fill="white" />
		<path d="M141.482 151C138.091 151 135.668 150.248 134.223 148.738C132.777 147.234 132.05 144.904 132.05 141.758V138.613H139.277V141.5C139.277 143.571 139.859 144.605 141.023 144.605C141.563 144.605 141.991 144.405 142.3 144.002C142.609 143.599 142.768 143.068 142.768 142.406C142.768 141.545 142.645 140.82 142.404 140.226C142.163 139.633 141.795 139.075 141.304 138.54C140.813 138.01 140.004 137.271 138.886 136.333L135.791 133.731C133.3 131.646 132.05 129.294 132.05 126.67C132.05 123.819 132.8 121.698 134.304 120.306C135.804 118.915 137.873 118.217 140.504 118.217H141.791C142.468 118.217 143.341 118.366 144.409 118.67C145.477 118.973 146.423 119.477 147.254 120.184C148.086 120.891 148.709 121.87 149.123 123.13C149.536 124.39 149.745 125.922 149.745 127.739H142.332L142.291 125.804C142.277 125.441 142.118 125.12 141.813 124.834C141.509 124.553 141.168 124.412 140.795 124.412C140.309 124.412 139.9 124.558 139.559 124.848C139.218 125.138 139.05 125.509 139.05 125.967C139.05 126.883 139.736 127.875 141.104 128.954L145.527 132.426C146.245 132.992 146.873 133.568 147.409 134.153C147.941 134.737 148.363 135.318 148.677 135.889C148.991 136.46 149.241 136.977 149.436 137.443C149.632 137.906 149.763 138.413 149.841 138.957C149.918 139.501 149.963 139.914 149.977 140.19C149.991 140.467 150 140.825 150 141.269C150 142.397 149.923 143.426 149.773 144.346C149.618 145.266 149.35 146.155 148.963 147.011C148.577 147.864 148.068 148.58 147.436 149.151C146.804 149.722 145.991 150.175 144.986 150.511C143.982 150.846 142.813 151.014 141.486 151.014L141.482 151Z" fill="white" />
	</g>
	<defs>
		<clipPath id="clip0_2227_3311">
			<rect width="150" height="151" fill="white" />
		</clipPath>
	</defs>
</svg>
