<svg width="106" height="130" viewBox="0 0 106 130" fill="none" xmlns="http://www.w3.org/2000/svg">
	<g clip-path="url(#clip0_2758_1068)">
		<path d="M15.3243 17.8826C18.8303 0.762244 25.2751 -3.14558 36.6676 4.72522C45.9014 -1.49106 53.7801 -0.4038 58.7516 11.3669C68.8363 8.17608 76.9749 12.856 76.5259 25.8952C76.0531 39.6829 76.4313 53.5021 76.4313 67.3055C76.4313 68.8813 76.4313 70.4649 76.4313 72.9388C78.4561 71.4891 79.7876 70.5121 81.1506 69.5746C87.8002 64.9892 96.0335 65.2571 102.187 70.2364C106.221 73.506 106.969 78.186 103.502 82.0229C93.3862 93.2106 83.6009 104.769 72.6968 115.153C58.7594 128.436 41.8203 132.714 23.3133 126.419C9.37591 121.676 0.441498 108.149 0.354833 93.3445C0.236653 72.3164 0.307561 51.2882 0.339075 30.26C0.354833 20.2935 5.08204 16.3147 15.3243 17.8826ZM71.6411 77.2799C71.6411 60.3487 71.6411 44.1659 71.6411 27.9831C71.6411 25.8952 71.775 23.7916 71.5465 21.7274C71.1132 17.7329 68.072 14.8887 64.5424 15.2275C60.6425 15.5978 58.5073 17.9299 58.1764 21.8298C58.0661 23.1062 58.1292 24.3983 58.1213 25.6825C58.1134 35.9563 58.1843 46.2379 58.0031 56.5117C57.9795 57.922 56.7267 59.3166 56.0413 60.719C55.2062 59.2693 54.1819 57.8984 53.6068 56.3542C53.2365 55.3693 53.5359 54.1324 53.5359 53.0057C53.5359 40.4786 53.5516 27.9594 53.5201 15.4323C53.5044 9.48394 50.7783 5.92278 46.3584 5.89126C41.6785 5.85975 38.9446 9.42091 38.9367 15.6608C38.9209 29.1491 38.9997 42.6374 38.8343 56.1257C38.8185 57.6699 37.4634 59.1984 36.7307 60.7426C35.9428 59.2456 34.501 57.7566 34.4774 56.2439C34.2804 44.8434 34.3671 33.443 34.3592 22.0425C34.3592 18.828 34.4616 15.6135 34.2804 12.4148C34.0598 8.45971 31.7356 6.04883 27.8672 5.94641C23.9909 5.83611 21.6115 8.18395 21.0521 12.0603C20.8 13.7936 20.8315 15.582 20.8315 17.3469C20.8079 30.3545 20.8709 43.3622 20.7212 56.362C20.7054 57.8117 19.5236 59.2378 18.8855 60.6796C18.0582 59.2299 16.5455 57.796 16.514 56.3227C16.2855 47.1755 16.3879 38.0205 16.3879 28.8734C16.3879 25.1546 14.8122 22.3498 10.9359 22.2947C6.77595 22.2395 5.18446 25.1389 5.19234 29.0624C5.2081 50.9021 4.97961 72.7418 5.28688 94.5736C5.47597 108.322 15.9231 120.81 29.4665 123.347C44.373 126.143 58.0898 122.811 69.0017 111.93C79.4488 101.507 89.2105 90.3979 99.3031 79.6199C101.462 77.3193 101.099 75.4915 98.6492 73.64C93.8038 69.9922 86.9493 69.9212 82.4743 74.9794C77.2349 80.9041 71.2235 82.8186 63.7703 81.8653C62.0291 81.6447 60.2406 81.8968 58.4758 81.818C52.0862 81.5344 46.4766 83.1968 41.7336 87.7349C40.8906 88.5386 39.0706 88.3258 37.7076 88.5779C38.0228 87.1992 37.8967 85.4028 38.7397 84.5047C43.5063 79.415 49.6438 77.3666 56.5061 77.3114C61.3043 77.272 66.1102 77.3036 71.6647 77.3036L71.6411 77.2799Z" fill="black" />
		<path d="M71.6409 77.2801C66.0865 77.2801 61.2805 77.2485 56.4823 77.2879C49.62 77.3431 43.4825 79.3915 38.7159 84.4812C37.8808 85.3793 38.0069 87.1757 37.6838 88.5544C39.0547 88.3023 40.8668 88.515 41.7098 87.7114C46.4528 83.1733 52.0703 81.5109 58.452 81.7945C60.2168 81.8733 62.0053 81.6212 63.7465 81.8418C71.2076 82.7951 77.2111 80.8806 82.4505 74.9559C86.9255 69.8977 93.7879 69.9686 98.6254 73.6165C101.076 75.4601 101.43 77.2879 99.2793 79.5964C89.1946 90.3823 79.4251 101.483 68.9779 111.907C58.066 122.795 44.3492 126.12 29.4427 123.323C15.8993 120.778 5.45217 108.291 5.26308 94.5501C4.95582 72.7183 5.1843 50.8786 5.16854 29.0389C5.16854 25.1154 6.76003 22.2081 10.9121 22.2712C14.7963 22.3263 16.3641 25.1311 16.3641 28.8498C16.3641 38.0049 16.2696 47.1599 16.4902 56.2992C16.5296 57.7725 18.0344 59.2064 18.8617 60.6561C19.4998 59.2143 20.6817 57.7803 20.6974 56.3385C20.8471 43.3309 20.7841 30.331 20.8077 17.3233C20.8077 15.5585 20.7841 13.7779 21.0283 12.0368C21.5877 8.16045 23.9671 5.82048 27.8434 5.92291C31.7118 6.03321 34.036 8.44408 34.2566 12.3913C34.4378 15.59 34.3354 18.8124 34.3354 22.019C34.3433 33.4195 34.2566 44.8199 34.4536 56.2204C34.4772 57.7331 35.919 59.2221 36.7069 60.7191C37.4396 59.1827 38.7868 57.6543 38.8105 56.1022C38.9759 42.6139 38.8971 29.1256 38.9129 15.6373C38.9208 9.38952 41.6547 5.82836 46.3346 5.86776C50.7546 5.89927 53.4806 9.46831 53.4963 15.4088C53.5278 27.9359 53.5121 40.4551 53.5121 52.9822C53.5121 54.1089 53.2127 55.338 53.583 56.3307C54.1581 57.8749 55.1824 59.2458 56.0175 60.6955C56.703 59.293 57.9557 57.9064 57.9793 56.4882C58.1526 46.2144 58.0817 35.9407 58.0975 25.659C58.0975 24.3748 58.0423 23.0827 58.1526 21.8063C58.4835 17.9064 60.6187 15.5743 64.5186 15.204C68.0482 14.8652 71.0894 17.7094 71.5227 21.7039C71.7433 23.7681 71.6173 25.8717 71.6173 27.9596C71.6173 44.1424 71.6173 60.3252 71.6173 77.2564L71.6409 77.2801Z" fill="#FBE7CA" />
	</g>
	<defs>
		<clipPath id="clip0_2758_1068">
			<rect width="105.417" height="128.438" fill="white" transform="translate(0.291504 0.833252)" />
		</clipPath>
	</defs>
</svg>
