<svg width="24" height="24" viewBox="0 0 24 24" fill="none" xmlns="http://www.w3.org/2000/svg">
	<mask id="mask0_2174_8243" style="mask-type:luminance" maskUnits="userSpaceOnUse" x="4" y="2" width="16" height="22">
		<path d="M4.69747 16.4455C4.69301 16.9377 4.76124 17.4277 4.89979 17.8983V17.9215L5.46212 19.7965C5.77947 20.8689 6.41838 21.8072 7.28512 22.4737C8.15188 23.1403 9.20085 23.4999 10.2782 23.5H14.0798C16.8554 23.5 19.1198 21.1413 19.1198 18.25V10.8205C19.1392 9.90625 18.6245 9.02125 17.7698 8.66425C17.2269 8.4385 16.656 8.47075 16.1498 8.6875C15.9148 8.21039 15.5239 7.83643 15.0475 7.633C14.7775 7.52232 14.4891 7.46939 14.1991 7.47738C13.9091 7.48537 13.6237 7.55411 13.3598 7.6795V4.75C13.3598 3.51625 12.3842 2.5 11.1998 2.5C10.0154 2.5 9.03979 3.51625 9.03979 4.75V5.89825L8.94979 5.59375C8.60635 4.41325 7.38308 3.736 6.24979 4.09375C5.11652 4.4515 4.46635 5.72575 4.80979 6.90625L6.67747 13.2347C6.52963 13.2924 6.38659 13.3627 6.24979 13.4447C5.64788 13.8197 4.96747 14.5787 4.76443 15.7892C4.72843 16.0142 4.69963 16.237 4.69747 16.4455ZM6.15979 6.15625C6.19076 5.86375 6.38515 5.614 6.67747 5.52325C7.06556 5.40025 7.45939 5.635 7.57747 6.03925L9.06211 11.1715L9.87214 10.9142H10.4798V4.75C10.4798 4.3255 10.7923 4 11.1998 4C11.6073 4 11.9198 4.3255 11.9198 4.75V9.6955L11.1775 11.6642C11.0686 11.939 11.0149 12.2341 11.0198 12.5312L8.07211 12.9295L6.18212 6.46075C6.1547 6.36192 6.14711 6.25827 6.15979 6.15625ZM6.18212 16.4688C6.18212 16.3255 6.18212 16.1762 6.20444 16.0465C6.3398 15.241 6.67748 14.9305 6.99212 14.734C7.30748 14.5382 7.53212 14.524 7.53212 14.524H7.57747L12.2121 13.8903C12.235 13.8839 12.2576 13.8764 12.2798 13.8678C12.3684 13.8449 12.4606 13.8408 12.5508 13.8556C12.641 13.8704 12.7274 13.9039 12.805 13.9541C12.8826 14.0043 12.9497 14.0702 13.0024 14.1478C13.0552 14.2255 13.0925 14.3133 13.1121 14.4062C13.1683 14.6493 13.1373 14.7723 13.0675 14.8983C12.9969 15.0243 12.8479 15.1795 12.5275 15.2965L9.03979 16.234C8.93485 16.2631 8.83758 16.3165 8.75525 16.3902C8.67293 16.464 8.60768 16.5561 8.5644 16.6599C8.52111 16.7636 8.50091 16.8762 8.50531 16.9892C8.50971 17.1022 8.53859 17.2128 8.58979 17.3125L9.24211 18.5545C9.28773 18.6409 9.34931 18.7171 9.42331 18.7786C9.49731 18.8402 9.58226 18.8858 9.67332 18.913C9.76433 18.9402 9.85956 18.9484 9.95364 18.937C10.0477 18.9257 10.1386 18.8951 10.2213 18.847C10.3041 18.7995 10.3771 18.7354 10.436 18.6584C10.495 18.5815 10.5388 18.4931 10.5648 18.3985C10.5909 18.3039 10.5988 18.2048 10.588 18.107C10.5773 18.0092 10.5481 17.9145 10.5021 17.8285L10.2998 17.4535L12.9552 16.726C12.9778 16.7196 13.0002 16.7121 13.0221 16.7035C13.5794 16.501 14.0265 16.1553 14.3051 15.6715C14.5327 15.2762 14.6198 14.8165 14.5752 14.359C14.7947 14.6043 15.0633 14.7964 15.3621 14.9215C15.752 15.0861 16.1799 15.1272 16.5922 15.0397C17.0045 14.9522 17.3828 14.7399 17.6798 14.4295V18.25C17.6798 20.3298 16.0763 22 14.0798 22H10.2775C8.69347 22 7.30171 20.9275 6.83515 19.3517L6.29515 17.4767C6.24979 17.3245 6.18212 16.8962 6.18212 16.4688ZM12.4821 12.3903C12.4907 12.3348 12.4821 12.2822 12.5051 12.2267L13.5851 9.4375C13.7363 9.04525 14.1302 8.85775 14.5067 9.01525C14.884 9.1735 15.064 9.60775 14.9121 10L13.8552 12.7892C13.8408 12.8298 13.8069 12.8477 13.7875 12.883C13.4149 12.576 12.9569 12.4031 12.4821 12.3903ZM15.4521 12.859C15.4521 12.76 15.4608 12.6543 15.4975 12.5545L15.8798 11.5472L16.2621 10.5625L16.2851 10.4688C16.4363 10.0765 16.8533 9.889 17.2298 10.0465C17.358 10.0983 17.469 10.188 17.5489 10.3046C17.6288 10.4212 17.6743 10.5596 17.6798 10.7028V10.7267C17.6832 10.8303 17.6678 10.9336 17.6344 11.0312L16.8245 13.117C16.7898 13.2099 16.7377 13.2947 16.6712 13.3665C16.6047 13.4382 16.5251 13.4954 16.4372 13.5347C16.3493 13.574 16.2547 13.5947 16.159 13.5954C16.0633 13.5962 15.9683 13.5771 15.8798 13.5392C15.7936 13.503 15.7154 13.4491 15.6497 13.3807C15.584 13.3123 15.5322 13.2307 15.4975 13.141C15.4632 13.0515 15.4477 12.9553 15.4521 12.859Z" fill="white" />
	</mask>
	<g mask="url(#mask0_2174_8243)">
		<path fill-rule="evenodd" clip-rule="evenodd" d="M8.12551 2.72445C8.76934 1.70102 9.88823 1 11.1998 1C13.2697 1 14.8598 2.7461 14.8598 4.75V6.02792C15.1186 6.07225 15.3723 6.145 15.6165 6.24512L15.6266 6.24925L15.6366 6.25353C16.0637 6.4359 16.4465 6.69648 16.7702 7.01668C17.2853 6.98326 17.8211 7.06109 18.3457 7.27923L18.3479 7.28014C19.8245 7.8969 20.6438 9.37581 20.6198 10.8344V18.25C20.6198 21.9114 17.7409 25 14.0798 25H10.2782C8.86498 24.9999 7.49551 24.5278 6.37075 23.6628M8.12551 2.72445C7.40647 2.45488 6.59674 2.41126 5.79824 2.66333C3.83955 3.28165 2.81269 5.41133 3.36951 7.32527L4.91714 12.5693C4.17948 13.2044 3.51166 14.1903 3.2851 15.5411L3.28327 15.5522C3.24438 15.7953 3.2009 16.1069 3.19755 16.43L3.19753 16.4319C3.19243 16.9947 3.26044 17.5557 3.39979 18.1V18.1416L4.02378 20.2221C4.02405 20.2231 4.02433 20.224 4.02461 20.2249C4.4298 21.5921 5.24793 22.7993 6.37075 23.6628M8.664 19.6922C8.83713 19.9144 9.04698 20.0958 9.27969 20.23C9.4432 20.3243 9.61821 20.3954 9.79949 20.4408C9.61126 20.4347 9.4246 20.4042 9.24404 20.3503M10.1325 20.4263C10.4303 20.3905 10.7152 20.2943 10.9714 20.146C11.2279 19.9982 11.4497 19.8017 11.6265 19.5709M16.1798 16.5845V18.25C16.1798 19.5596 15.1908 20.5 14.0798 20.5H10.2775C10.1154 20.5 9.95505 20.4798 9.79949 20.4408C9.91026 20.4444 10.0216 20.4397 10.1325 20.4263M16.1798 16.5845C16.4217 16.5835 16.6641 16.5578 16.9036 16.507C17.1516 16.4544 17.3914 16.3759 17.6198 16.2738V18.25C17.6198 20.3712 15.9698 22 14.0798 22M11.6265 19.5709C11.8042 19.339 11.9341 19.0753 12.0107 18.7976ZM12.0111 18.7962C12.0358 18.7066 12.0549 18.6158 12.0683 18.5243L13.3515 18.1727L13.363 18.1695C13.4248 18.152 13.487 18.1316 13.5492 18.1079C14.3421 17.8166 15.0597 17.2999 15.5397 16.5291C15.7509 16.5668 15.9651 16.5854 16.1798 16.5845V15.0953C16.1765 15.0953 16.1732 15.0953 16.17 15.0954C16.1309 15.0957 16.0919 15.0949 16.0531 15.0931M15.3772 13.0059L15.4979 13.1408L15.6929 13.3586C15.7523 13.425 15.8197 13.4768 15.8905 13.5139C15.8905 13.5139 15.8904 13.5139 15.8905 13.5139C15.9072 13.5227 15.9244 13.5307 15.9415 13.5379L15.9454 13.5396C16.0147 13.5688 16.0869 13.5837 16.1589 13.5845C16.1589 13.5845 16.1589 13.5845 16.1589 13.5845C16.1998 13.585 16.2406 13.5809 16.2808 13.5724M16.153 12.887L15.4979 13.1408L16.1553 12.8891L16.1574 12.891L16.1586 12.8922M13.9525 12.9591C13.9511 12.916 13.9511 12.8727 13.9523 12.8295C13.9523 12.8284 13.9523 12.8272 13.9523 12.826L13.8625 12.792L13.8213 12.842C13.8667 12.8794 13.9104 12.9185 13.9525 12.9591ZM13.8625 12.792L13.8905 12.8017L13.9523 12.8237C13.9528 12.7808 13.9542 12.7314 13.9577 12.6764L13.9234 12.7181L13.8974 12.7852L13.8905 12.8017C13.8952 12.7905 13.8997 12.7794 13.9039 12.7683C13.9101 12.7523 13.9156 12.7366 13.9209 12.7211L13.8625 12.792ZM15.3772 13.0059L15.4328 12.859L15.5418 12.5713L15.9997 12.7451L16.153 12.887" fill="#212121" />
	</g>
</svg>
