<svg width="107" height="114" viewBox="0 0 107 114" fill="none" xmlns="http://www.w3.org/2000/svg">
	<g clip-path="url(#clip0_2758_74)">
		<path d="M51.6767 6.52309C60.7545 -1.90277 67.3707 -1.9275 76.7183 6.27576C77.5279 5.58322 78.3376 4.82473 79.2126 4.14868C83.4244 0.892109 88.0614 0.32324 92.8375 2.49154C97.6381 4.66808 100.345 8.58421 100.5 13.9266C100.68 19.9616 100.55 26.013 100.55 32.0563C100.55 38.5364 101.007 44.5466 103.911 50.8949C108.556 61.0521 105.579 71.7617 101.236 81.5809C91.3491 103.948 71.3371 115.07 44.2837 113.726C20.8205 112.564 2.4523 94.6401 1.27464 70.962C0.612212 57.5729 0.824845 44.1179 1.08655 30.6959C1.32371 18.7579 11.2684 13.5969 24.1981 18.6672C23.9854 10.6124 26.4062 3.99203 34.4862 1.15593C41.2332 -1.21023 46.8516 1.15593 51.6767 6.53134V6.52309ZM6.17337 57.3833C6.17337 62.5691 5.87896 67.2602 6.22244 71.9101C7.45734 88.4815 19.2257 103.47 35.2631 107.056C43.2123 108.837 51.8812 109.043 59.9858 108.046C83.0564 105.218 101.196 83.3946 100.926 60.005C100.803 49.4439 93.3118 40.9026 83.0891 40.7047C66.4383 40.3749 49.7712 40.6635 33.1123 40.5481C29.8819 40.5233 29.2195 41.9909 29.244 44.8434C29.3176 53.7475 35.8601 60.8625 44.9052 61.1593C52.7235 61.4149 60.5664 61.1098 68.3929 61.3324C69.8895 61.3736 71.3534 62.701 72.8337 63.4348C71.5088 64.3087 70.2739 65.7185 68.8427 65.9576C58.4646 67.7054 52.3882 74.6885 52.2492 85.3403C52.2328 86.3462 52.5109 87.4509 52.1838 88.3413C51.6195 89.8748 50.6872 91.2764 49.9102 92.7356C49.1006 91.3506 47.7349 90.0232 47.5876 88.5722C46.7208 80.204 49.0025 72.7593 56.2565 65.8504C43.6539 66.6748 32.8669 66.2131 26.766 54.7203C18.9395 60.9119 15.5619 61.3407 6.17337 57.3751V57.3833ZM49.2069 35.5024C49.2069 28.0329 49.5586 20.8355 49.0843 13.6875C48.7571 8.7491 44.1283 5.26168 39.3604 5.26168C34.6907 5.26168 29.9719 8.48528 29.6693 13.0527C29.1704 20.4975 29.5384 28.0082 29.5384 35.4942L49.2069 35.4942V35.5024ZM74.3385 35.5684C74.3385 28.1649 74.6492 21.1406 74.2321 14.1657C73.9295 9.07064 69.3089 5.35237 64.3529 5.26993C59.585 5.18748 54.7436 8.65841 54.441 13.4072C53.9748 20.6871 54.3183 28.0247 54.3183 35.5602H74.3303L74.3385 35.5684ZM24.4925 38.4292C24.4925 35.5849 24.6888 32.7323 24.4516 29.9127C24.01 24.7846 20.0926 21.2477 15.2103 21.2642C10.4914 21.2725 6.54139 24.4961 6.18973 29.5087C5.789 35.3211 5.79718 41.2076 6.20608 47.0282C6.55775 52.0491 10.4833 55.1903 15.2757 55.182C20.1499 55.1738 24.0345 51.5957 24.4598 46.4594C24.6806 43.8046 24.5007 41.1169 24.4925 38.4375V38.4292ZM95.6099 38.8992C95.6099 30.6217 95.7734 22.4349 95.5445 14.2647C95.4136 9.54882 91.9379 6.37469 87.5871 6.30049C83.3426 6.22629 79.5807 9.08713 79.3844 13.4072C79.0573 20.7036 79.2944 28.0329 79.2944 34.9006C84.921 36.2774 89.9833 37.5223 95.6099 38.9074V38.8992Z" fill="black" />
		<path d="M6.17359 57.3833C15.5703 61.3489 18.9479 60.9202 26.7662 54.7286C32.8753 66.2214 43.6623 66.6831 56.2567 65.8586C49.0027 72.7593 46.7128 80.2123 47.5879 88.5804C47.7351 90.0314 49.109 91.3588 49.9105 92.7439C50.6874 91.2846 51.6197 89.883 52.184 88.3496C52.5111 87.4592 52.2331 86.3544 52.2494 85.3486C52.3803 74.6967 58.4648 67.7219 68.8429 65.9658C70.2741 65.7267 71.509 64.3087 72.8339 63.443C71.3536 62.7092 69.8898 61.3819 68.3931 61.3406C60.5666 61.118 52.7319 61.4231 44.9054 61.1675C35.8685 60.8707 29.3178 53.7475 29.2442 44.8517C29.2197 41.9991 29.8821 40.5316 33.1125 40.5563C49.7714 40.6717 66.4386 40.3832 83.0893 40.713C93.312 40.9191 100.811 49.4521 100.926 60.0133C101.188 83.4029 83.0566 105.234 59.986 108.054C51.8732 109.043 43.2044 108.837 35.2634 107.065C19.2178 103.478 7.45757 88.4815 6.22266 71.9183C5.87918 67.2684 6.17359 62.5691 6.17359 57.3915V57.3833Z" fill="#FBE7CA" />
		<path d="M49.2074 35.5026H29.5388C29.5388 28.0166 29.179 20.5058 29.6697 13.0611C29.9723 8.49363 34.6911 5.26179 39.3608 5.27004C44.1369 5.27004 48.7576 8.7657 49.0847 13.6959C49.559 20.8356 49.2074 28.0331 49.2074 35.5108V35.5026Z" fill="#FBE7CA" />
		<path d="M74.3385 35.5768H54.3265C54.3265 28.0331 53.983 20.7038 54.4492 13.4239C54.7518 8.66683 59.5932 5.20415 64.3611 5.2866C69.3171 5.36904 73.9378 9.07906 74.2404 14.1824C74.6493 21.1572 74.3467 28.1815 74.3467 35.5851L74.3385 35.5768Z" fill="#FBE7CA" />
		<path d="M24.4928 38.4294C24.4928 41.1006 24.6809 43.7965 24.4601 46.4513C24.0348 51.5876 20.1502 55.1574 15.276 55.1739C10.4754 55.1822 6.55806 52.041 6.20639 47.0201C5.79749 41.2078 5.78931 35.3212 6.19004 29.5006C6.53352 24.488 10.4918 21.2644 15.2106 21.2561C20.0929 21.2479 24.0103 24.7765 24.4519 29.9046C24.6972 32.7242 24.4928 35.585 24.501 38.4211L24.4928 38.4294Z" fill="#FBE7CA" />
		<path d="M95.61 38.8993C89.9834 37.5225 84.9211 36.2776 79.2945 34.8925C79.2945 28.0249 79.0573 20.6955 79.3845 13.3992C79.5807 9.07906 83.3427 6.21823 87.5872 6.29243C91.9461 6.36663 95.4219 9.54075 95.5445 14.2566C95.7653 22.4351 95.61 30.6219 95.61 38.8911V38.8993Z" fill="#FBE7CA" />
	</g>
	<defs>
		<clipPath id="clip0_2758_74">
			<rect width="105.417" height="113.667" fill="white" transform="translate(0.833496 0.166504)" />
		</clipPath>
	</defs>
</svg>
