<svg width="106" height="166" viewBox="0 0 106 166" fill="none" xmlns="http://www.w3.org/2000/svg">
	<g clip-path="url(#clip0_2758_2014)">
		<path d="M24.263 71.1887C26.6593 61.0693 33.1086 57.0874 43.4419 57.9248C42.0166 47.6361 40.6715 37.8195 39.3086 28.003C38.8632 24.7694 38.3287 21.5447 37.9189 18.3022C36.7965 9.42988 41.4198 2.64203 49.3656 1.41273C57.65 0.129983 64.2686 5.24315 65.6672 14.3114C67.4132 25.6067 68.9275 36.9287 70.5755 48.2418C70.7982 49.774 71.2614 51.2705 72.2858 52.7225C74.1476 39.9931 76.0004 27.2725 77.8889 14.543C79.2429 5.42131 85.7457 -0.0481755 93.7807 1.10986C102.012 2.30352 106.67 9.12701 105.539 18.2309C102.386 43.6008 99.0453 68.9439 96.2482 94.3583C95.3218 102.794 96.1413 111.417 95.6335 119.915C94.0836 145.793 73.6665 165.15 48.2432 165.132C23.2921 165.114 2.08225 145.16 0.728244 119.755C0.069056 107.453 0.256123 95.0798 0.612441 82.7512C0.950943 71.1085 11.5247 65.9597 24.2541 71.1887H24.263ZM26.3475 107.702C19.9071 113.439 13.2974 113.947 6.32244 109.894C3.15121 135.148 20.976 158.032 44.5464 159.716C69.8539 161.524 90.4046 142.497 90.7431 116.949C90.8945 105.368 82.1914 95.739 70.6378 95.4005C58.8526 95.0531 47.0407 95.3649 35.2465 95.2491C30.463 95.2045 29.207 97.5919 29.973 101.841C31.1578 108.415 37.0192 113.341 44.395 113.599C50.1941 113.804 56.0199 113.564 61.819 113.804C62.9146 113.849 63.948 115.185 65.0169 115.924C64.1172 116.842 63.36 118.036 62.2822 118.597C61.2132 119.158 59.7969 119.007 58.5676 119.309C50.0694 121.385 45.4996 128.226 45.1611 138.622C45.0987 140.582 43.6824 142.497 42.8985 144.43C41.981 142.426 40.4755 140.493 40.2439 138.408C39.4244 131.068 42.2482 124.77 47.9047 118.73C38.106 119.069 31.2023 115.826 26.3653 107.711L26.3475 107.702ZM89.5316 99.2398C93.1928 71.643 96.7292 44.8746 100.301 18.1151C101.165 11.6212 98.3683 6.9891 93.0057 6.27647C87.9727 5.60837 84.0888 9.06466 83.1179 15.4873C80.3742 33.5971 77.8533 51.7337 75.0027 69.8258C74.5751 72.5338 72.8559 75.0369 71.7335 77.6291C70.6111 75.0102 68.8741 72.4893 68.4554 69.7723C65.6494 51.6714 63.1462 33.5348 60.4828 15.4071C59.6098 9.45661 55.7526 5.95578 50.8622 6.419C45.6956 6.90893 42.5333 11.4342 43.1034 17.5272C43.139 17.8924 43.1746 18.2488 43.2281 18.6051C44.8582 29.9093 46.426 41.2313 48.1809 52.5176C48.751 56.2144 49.7576 59.8578 50.684 63.4922C51.6372 67.2692 53.2406 70.966 53.6415 74.7875C54.1581 79.7314 53.7662 84.7733 53.7662 90.1003C67.0746 90.2606 80.303 87.8644 89.5316 99.2398ZM5.88595 90.421C5.88595 90.421 5.82359 90.421 5.78796 90.421C5.78796 93.129 5.6098 95.8548 5.82359 98.545C6.23336 103.649 10.2152 107.364 15.0522 107.426C19.6844 107.489 24.0136 104.121 24.3699 99.2933C24.7975 93.5476 24.7797 87.7218 24.3699 81.9673C24.0403 77.2817 19.524 73.772 15.0077 73.87C10.331 73.968 6.45606 77.4154 5.93939 82.288C5.65434 84.9693 5.88595 87.704 5.88595 90.412V90.421ZM48.5461 89.9756C48.5461 83.4906 48.7421 77.7004 48.4838 71.9281C48.2611 67.0376 44.4217 63.421 39.7451 63.0825C35.1307 62.7529 30.4095 66.0577 30.0621 70.7878C29.59 77.2194 29.9463 83.7044 29.9463 89.9666H48.5372L48.5461 89.9756Z" fill="black" />
		<path d="M26.3475 107.711C31.1845 115.826 38.0792 119.069 47.8869 118.73C42.2392 124.77 39.4065 131.068 40.226 138.408C40.4576 140.492 41.9631 142.425 42.8806 144.43C43.6734 142.497 45.0809 140.581 45.1432 138.622C45.4817 128.226 50.0515 121.394 58.5497 119.309C59.779 119.006 61.1953 119.158 62.2643 118.597C63.3422 118.027 64.0993 116.842 64.999 115.924C63.939 115.185 62.8968 113.849 61.8011 113.804C56.002 113.573 50.1851 113.804 44.3771 113.599C37.0014 113.341 31.1399 108.415 29.9552 101.841C29.1891 97.6006 30.4362 95.2044 35.2287 95.2489C47.0228 95.3647 58.8347 95.053 70.62 95.4004C82.1825 95.7389 90.8766 105.368 90.7252 116.949C90.3867 142.497 69.8361 161.524 44.5286 159.716C20.9581 158.032 3.13334 135.148 6.30457 109.894C13.2795 113.938 19.8892 113.439 26.3296 107.702L26.3475 107.711Z" fill="#FBE7CA" />
		<path d="M89.5314 99.2397C80.3028 87.8554 67.0745 90.2605 53.766 90.1002C53.766 84.7732 54.158 79.7313 53.6413 74.7874C53.2405 70.9659 51.637 67.2691 50.6839 63.4921C49.7664 59.8577 48.7598 56.2143 48.1807 52.5175C46.4259 41.2312 44.867 29.9092 43.2279 18.605C43.1745 18.2487 43.1388 17.8834 43.1032 17.5271C42.5331 11.4341 45.6954 6.90884 50.862 6.4189C55.7525 5.95569 59.6096 9.4476 60.4826 15.407C63.1461 33.5258 65.6403 51.6713 68.4552 69.7722C68.8739 72.4981 70.611 75.019 71.7334 77.629C72.8558 75.0368 74.575 72.5337 75.0026 69.8257C77.8531 51.7336 80.3741 33.5971 83.1177 15.4872C84.0887 9.06456 87.9726 5.60828 93.0055 6.27637C98.377 6.98901 101.174 11.6211 100.301 18.115C96.7291 44.8745 93.1926 71.6429 89.5314 99.2397Z" fill="#FBE7CA" />
		<path d="M5.88535 90.4208C5.88535 87.7128 5.65375 84.978 5.9388 82.2967C6.46437 77.4241 10.3393 73.9767 15.0071 73.8787C19.5234 73.7807 24.0398 77.2905 24.3693 81.976C24.7791 87.7217 24.788 93.5475 24.3693 99.302C24.013 104.121 19.6927 107.488 15.0516 107.435C10.2146 107.373 6.23276 103.649 5.823 98.5537C5.60921 95.8635 5.78737 93.1377 5.78737 90.4297C5.823 90.4297 5.84972 90.4297 5.88535 90.4297V90.4208Z" fill="#FBE7CA" />
		<path d="M48.546 89.9754H29.9551C29.9551 83.7131 29.5988 77.2281 30.0709 70.7966C30.4183 66.0665 35.1395 62.7616 39.7538 63.0912C44.4305 63.4208 48.2698 67.0375 48.4925 71.9368C48.7509 77.7092 48.5549 83.4904 48.5549 89.9843L48.546 89.9754Z" fill="#FBE7CA" />
	</g>
	<defs>
		<clipPath id="clip0_2758_2014">
			<rect width="105.417" height="164.174" fill="white" transform="translate(0.291992 0.958252)" />
		</clipPath>
	</defs>
</svg>
