<svg width="24" height="24" viewBox="0 0 24 24" fill="none" xmlns="http://www.w3.org/2000/svg">
	<path fill-rule="evenodd" clip-rule="evenodd" d="M5.80732 21.0774C6.33808 21.6819 6.99181 22.1662 7.72479 22.4977C8.45777 22.8293 9.2531 23.0005 10.0576 23H14.333C17.4539 23 20 20.454 20 17.3333V10.0476C20 8.71595 18.903 7.61905 17.5713 7.61905C17.1381 7.61905 16.7366 7.74533 16.382 7.94771C16.1642 7.60053 15.8622 7.3141 15.5039 7.11509C15.1456 6.91608 14.7428 6.81096 14.333 6.80952C13.8998 6.80952 13.4983 6.93581 13.1437 7.13819C12.9259 6.79101 12.6239 6.50458 12.2656 6.30556C11.9073 6.10655 11.5045 6.00143 11.0947 6C10.6848 6.00143 10.282 6.10655 9.92374 6.30556C9.56547 6.50458 9.26339 6.79101 9.04563 7.13819C8.68484 6.92636 8.27473 6.81302 7.85636 6.80952C6.52461 6.80952 5.42763 7.90643 5.42763 9.2381V12.1977L3.73238 14.3737C2.69855 15.711 2.76818 17.6304 3.88458 18.9014L5.80732 21.0774ZM10.0576 21.381H14.333C16.5779 21.381 18.3808 19.5781 18.3808 17.3333V10.0476C18.3808 9.58943 18.0295 9.2381 17.5713 9.2381C17.1131 9.2381 16.7617 9.58943 16.7617 10.0476V10.8571H15.1425V9.2381C15.1425 8.7799 14.7912 8.42857 14.333 8.42857C13.8747 8.42857 13.5234 8.7799 13.5234 9.2381V10.8571H11.9042V8.42857C11.9042 7.97038 11.5529 7.61905 11.0947 7.61905C10.6364 7.61905 10.2851 7.97038 10.2851 8.42857V10.8571H8.66594V9.2381C8.66594 8.7799 8.31458 8.42857 7.85636 8.42857C7.39814 8.42857 7.04679 8.7799 7.04679 9.2381V15.7143H5.42763V14.8538L5.02285 15.3856C4.94222 15.4884 4.87298 15.5986 4.81576 15.7143C4.67849 15.9917 4.61038 16.3004 4.6202 16.6137C4.62209 16.6741 4.62686 16.7341 4.63444 16.7937C4.68255 17.1715 4.84375 17.5276 5.09895 17.8142L7.02169 20.0145C7.4009 20.4457 7.86802 20.7907 8.39167 21.0264C8.91532 21.2621 9.48335 21.383 10.0576 21.381Z" fill="currentColor" />
</svg>
