<svg width="60" height="60" viewBox="0 0 60 60" fill="none" xmlns="http://www.w3.org/2000/svg">
	<g style="mix-blend-mode:multiply" opacity="0.6">
		<path d="M59.871 11.5032C59.6051 6.81145 59.1458 1.56625 53.7309 0.748195C51.7245 0.459469 49.6456 0.50759 47.6392 0.50759C44.4241 0.50759 41.209 0.483529 37.994 0.387287C31.3704 0.194803 24.7711 0.146682 18.1475 0.0745006C15.3192 0.05044 12.491 -0.045802 9.66265 0.0263795C7.77712 0.0745006 5.89159 0.315106 4.17528 1.18128C2.41061 2.09558 1.37115 3.82794 0.766816 5.6806C0.234999 7.31672 0.283346 9.00095 0.355866 10.7093C0.162479 15.3289 0.210826 19.9726 0.162479 24.5922C0.114132 30.0539 0.138305 35.5156 0.0174378 40.9774C-0.0309092 43.5037 0.0174378 46.0301 0.210826 48.5324C0.38004 50.5535 0.549254 52.743 1.39533 54.5956C2.79739 57.6754 6.47176 59.7927 9.73518 59.9611C12.781 60.1055 15.6093 59.8168 18.5101 59.6002C22.2087 59.3115 25.1579 59.4318 28.8806 59.2153C32.8934 58.9987 36.9062 58.8544 40.919 58.7581C42.8287 58.71 44.7142 58.8062 46.6239 58.8784C48.2194 58.9265 49.9598 58.9987 51.5311 58.5416C53.3441 58.3731 55.1571 58.1325 56.5109 56.6889C57.9371 55.1731 58.3964 52.767 58.6623 50.77C59.0007 47.9309 59.2183 45.0677 59.315 42.1804C59.4358 38.3548 59.2425 34.5292 59.46 30.7035C59.7018 26.6373 59.9435 22.5711 59.9918 18.4808C60.016 16.171 59.9918 13.8371 59.8468 11.5273L59.871 11.5032Z" fill="#8A7D63" />
	</g>
	<path d="M58.6876 10.8056C58.4217 6.37842 57.9624 1.44601 52.7409 0.700136C50.7829 0.411409 48.8006 0.483591 46.8426 0.483591C43.7242 0.483591 40.6058 0.483591 37.5116 0.363288C31.0815 0.170804 24.6755 0.122683 18.2695 0.0745621C15.5379 0.0505016 12.7822 -0.0216799 10.0505 0.0264411C8.21336 0.0745621 6.37618 0.291107 4.73238 1.10916C3.04024 1.95128 2.02495 3.5874 1.44479 5.31976C0.937148 6.85963 0.961321 8.44762 1.03384 10.0356C0.840454 14.3665 0.888801 18.7455 0.840454 23.0764C0.792107 28.2013 0.81628 33.3503 0.719586 38.4752C0.671239 40.8571 0.719586 43.2151 0.912974 45.5971C1.05801 47.4738 1.2514 49.543 2.0733 51.2994C3.42702 54.1867 6.98052 56.1837 10.1472 56.3521C13.0964 56.4724 15.828 56.2078 18.6321 56.0153C22.234 55.7506 25.0864 55.8468 28.6883 55.6544C32.5802 55.4378 36.4722 55.2935 40.3641 55.2213C42.2013 55.1732 44.0385 55.2694 45.8756 55.3175C47.4227 55.3656 49.1149 55.4138 50.6378 55.0047C52.4025 54.8363 54.143 54.6198 55.4725 53.2724C56.8504 51.8528 57.3097 49.5911 57.5514 47.6903C57.8899 45.0196 58.1074 42.3248 58.1799 39.6301C58.3008 36.021 58.1074 32.436 58.3492 28.8509C58.5909 25.0253 58.8085 21.1997 58.8568 17.35C58.8568 15.1605 58.8568 12.9951 58.7359 10.8056H58.6876Z" fill="url(#paint0_linear_2173_8537)" />
	<g style="mix-blend-mode:multiply" opacity="0.5">
		<path d="M58.445 7.96655C57.4781 8.20716 56.5112 8.47182 55.5442 8.73649C53.417 9.338 51.2413 10.6373 48.9932 10.541C48.8723 10.541 48.7515 10.4929 48.6548 10.4448C48.6548 17.3502 48.3889 24.2074 48.0746 31.0887C47.9054 34.7219 49.3558 40.9295 45.4155 43.0949C41.7412 45.116 36.7373 44.6107 32.6761 44.9957C26.6086 45.5491 20.5652 46.1506 14.4977 45.3566C13.9175 48.7732 12.5396 52.1417 12.2495 55.6064C12.2495 55.847 12.2253 56.1117 12.2012 56.4004C14.3768 56.4004 16.4799 56.1838 18.6071 56.0395C22.209 55.7748 25.0615 55.8711 28.6633 55.6786C32.5552 55.462 36.4472 55.3177 40.3391 55.2455C42.1763 55.1974 44.0135 55.2936 45.8506 55.3417C47.3978 55.3898 49.0899 55.438 50.6128 55.0289C52.3775 54.8605 54.118 54.644 55.4475 53.2966C56.8254 51.877 57.2847 49.6153 57.5264 47.7145C57.8649 45.0438 58.0824 42.349 58.1549 39.6543C58.2758 36.0452 58.0824 32.4602 58.3242 28.8751C58.5659 25.0495 58.7835 21.2239 58.8318 17.3742C58.8318 15.1847 58.8318 13.0193 58.7109 10.8298C58.6626 9.89139 58.5901 8.90491 58.4692 7.96655H58.445Z" fill="#D47F02" />
	</g>
	<g style="mix-blend-mode:multiply" opacity="0.2">
		<path d="M13.4831 9.16941C20.9285 9.36189 28.3739 9.07317 35.8194 8.54384C39.1311 8.30323 42.4913 7.79796 45.803 7.8942C46.1656 7.8942 46.5524 7.91826 46.9392 7.94232C47.2776 6.90772 47.6402 5.87312 48.0995 4.81446C48.728 3.37083 49.4049 1.95125 50.0334 0.507624C48.9697 0.483563 47.8819 0.507624 46.8183 0.507624C43.6999 0.507624 40.5815 0.507624 37.4873 0.387321C31.0814 0.170776 24.6754 0.122655 18.2694 0.0745344C15.7554 0.0745344 13.2172 -0.0217077 10.7031 0.0264133C11.3316 1.95125 12.0568 3.85204 12.5645 5.825C12.8546 6.95584 13.1446 8.06263 13.4831 9.16941Z" fill="#D47F02" />
	</g>
	<g style="mix-blend-mode:multiply" opacity="0.2">
		<path d="M24.1919 0.122719C22.2096 0.122719 20.2516 0.0745976 18.2693 0.0745976C17.5683 0.0745976 16.8915 0.0745976 16.1904 0.0505371C16.6256 3.08216 16.8431 6.23409 17.52 9.2176C19.6231 9.2176 21.7503 9.19354 23.8534 9.12135C23.9501 6.11379 24.0952 3.13028 24.1677 0.122719H24.1919Z" fill="#D47F02" />
	</g>
	<g style="mix-blend-mode:multiply" opacity="0.2">
		<path d="M42.5401 0.483719C40.848 0.483719 39.1559 0.435598 37.4637 0.387477C36.6902 0.363416 35.8924 0.339355 35.1189 0.339355C34.7805 2.79353 34.3937 5.2477 33.7893 7.65375C33.6927 7.9906 33.6201 8.35151 33.5234 8.68836C34.297 8.64023 35.0464 8.59211 35.8199 8.54399C37.0528 8.44775 38.3098 8.32745 39.5668 8.20715C40.5096 5.60861 41.5974 3.08225 42.5643 0.483719H42.5401Z" fill="#D47F02" />
	</g>
	<g style="mix-blend-mode:multiply" opacity="0.2">
		<path d="M47.9301 0.483643H46.8181C46.4071 0.483643 45.9962 0.483643 45.6094 0.483643C45.1501 2.72127 43.6272 4.71829 42.5877 6.71532C42.3702 7.12435 42.1768 7.55744 41.9834 7.99052C42.5152 7.9424 43.0712 7.91834 43.603 7.89428C45.0293 5.41605 46.5038 2.96188 47.9301 0.483643Z" fill="#D47F02" />
	</g>
	<g style="mix-blend-mode:multiply" opacity="0.2">
		<path d="M10.2198 41.7475C10.0747 40.9294 10.1714 39.991 10.1714 39.3655C10.1714 37.2963 10.3406 35.2271 10.3648 33.1819C10.4373 26.2525 11.3317 19.4434 10.1472 12.5621C7.10138 11.0462 3.78962 9.33794 1.05801 7.14844C0.961321 8.11086 0.985494 9.07328 1.03384 10.0598C0.840454 14.3907 0.888801 18.7697 0.840454 23.1006C0.792107 28.2255 0.81628 33.3744 0.719586 38.4993C0.671239 40.8813 0.719586 43.2392 0.912974 45.6212C1.00967 46.9686 1.15471 48.4122 1.51731 49.7596C4.29726 46.9445 7.07721 44.1295 10.2439 41.7475H10.2198Z" fill="#D47F02" />
	</g>
	<g style="mix-blend-mode:multiply" opacity="0.2">
		<path d="M10.3886 17.3257C10.3886 17.3257 10.582 17.3017 10.6787 17.2776C10.6062 16.1468 10.5095 14.9919 10.3644 13.837C7.2944 12.658 4.22437 11.3587 1.0093 10.7332C0.912605 13.3076 0.888431 15.858 0.864258 18.4325C4.05516 18.1438 7.19771 17.7348 10.3886 17.3257Z" fill="#D47F02" />
	</g>
	<g style="mix-blend-mode:multiply" opacity="0.2">
		<path d="M10.7275 21.8252C10.7275 21.4884 10.7275 21.1515 10.7275 20.8147C7.41577 21.2959 4.07983 21.8012 0.816406 22.5952C0.816406 22.7636 0.816406 22.932 0.816406 23.1245C0.816406 24.0629 0.816406 25.0253 0.816406 25.9636C4.27321 25.0253 7.46411 23.3651 10.7275 21.8493V21.8252Z" fill="#D47F02" />
	</g>
	<g style="mix-blend-mode:multiply" opacity="0.2">
		<path d="M4.5633 27.6959C5.40937 27.2387 6.25544 26.7816 7.12568 26.3485C8.28601 25.7711 9.47051 25.2417 10.6792 24.7365C10.6792 24.6643 10.6792 24.568 10.6792 24.4958C7.24655 25.747 3.93478 27.4312 0.816406 29.332C0.816406 29.3801 0.816406 29.4283 0.816406 29.4764C1.00979 29.4042 1.17901 29.332 1.34822 29.2598C2.29099 28.5861 3.49966 28.0809 4.5633 27.6718V27.6959Z" fill="#D47F02" />
	</g>
	<g style="mix-blend-mode:multiply" opacity="0.2">
		<path d="M0.913114 45.7895C3.91063 42.8301 6.98066 39.9428 10.2199 37.2721C10.2199 36.8149 10.2441 36.3578 10.2683 35.9006C7.14987 38.0661 3.9348 40.039 0.792247 42.1323C0.768074 42.1564 0.7439 42.1804 0.719727 42.2045C0.7439 43.3353 0.81642 44.4902 0.913114 45.6211C0.913114 45.6692 0.913114 45.7173 0.913114 45.7654V45.7895Z" fill="#D47F02" />
	</g>
	<g style="mix-blend-mode:multiply" opacity="0.5">
		<path d="M58.2278 13.3319C58.4212 13.3319 58.5904 13.3319 58.7596 13.3319C58.7596 12.4898 58.7113 11.6717 58.6629 10.8296C58.5179 8.30324 58.3003 5.60846 57.1642 3.6355C54.3117 5.84907 51.4834 8.11075 48.776 10.5168C48.365 11.792 48.2683 13.1394 48.2925 14.4868C51.5318 13.789 54.9402 13.4281 58.2036 13.3559L58.2278 13.3319Z" fill="#D47F02" />
	</g>
	<g style="mix-blend-mode:multiply" opacity="0.3">
		<path d="M48.9701 21.8012C49.0668 23.7019 48.8251 24.3275 48.8976 26.2283C52.0885 25.7711 55.2794 25.6508 58.4945 25.6027C58.5912 23.7982 58.6878 21.9696 58.7362 20.165C55.3761 20.3335 52.3302 21.6327 48.9701 21.8012Z" fill="#D47F02" />
	</g>
	<g style="mix-blend-mode:multiply" opacity="0.3">
		<path d="M18.1976 49.6633C18.4394 48.4603 18.6811 47.3054 19.0195 46.1505C19.0437 46.0542 19.1162 45.8858 19.1887 45.6692C16.6022 45.3565 14.0156 44.6587 11.4291 44.8271C11.284 45.2121 11.1148 45.573 10.9698 45.958C9.80943 48.6527 9.06005 51.4678 8.04477 54.2107C7.85138 54.7641 7.65799 55.2934 7.44043 55.8468C8.31067 56.1596 9.22927 56.3281 10.0995 56.3762C12.4685 56.4965 14.6925 56.3281 16.9406 56.1596C17.3757 53.9942 17.7625 51.8287 18.1976 49.6873V49.6633Z" fill="#D47F02" />
	</g>
	<g style="mix-blend-mode:multiply" opacity="0.5">
		<path d="M30.4297 46.1264C28.7134 46.1264 26.9729 46.0542 25.2324 46.0061C25.6675 49.2302 25.7401 52.5265 25.5709 55.7747C26.562 55.7747 27.5772 55.7266 28.6651 55.6544C29.4144 55.6062 30.1396 55.5822 30.889 55.5341C30.5989 52.4062 30.3814 49.2783 30.4297 46.1264Z" fill="#D47F02" />
	</g>
	<g style="mix-blend-mode:multiply" opacity="0.2">
		<path d="M58.4216 26.9983C54.9889 26.4209 52.0398 25.7472 48.8972 26.2284C48.8972 26.8059 48.9939 28.7788 49.0181 29.3322C49.1631 32.9654 49.5015 36.7669 49.0181 40.376C48.8489 41.7234 48.2445 43.167 47.0842 43.961C45.5129 45.0437 43.579 45.2362 41.7177 45.4528C38.4059 45.8377 35.1425 46.1505 31.8066 46.1265C31.7582 49.2543 31.9758 52.3581 32.2658 55.4619C34.9491 55.3416 37.6324 55.2695 40.3156 55.2213C42.1528 55.1732 43.99 55.2695 45.8272 55.3176C47.3743 55.3657 49.0664 55.4138 50.5893 55.0048C52.354 54.8364 54.0945 54.6198 55.424 53.2724C56.8019 51.8529 57.2612 49.5912 57.503 47.6904C57.8414 45.0197 58.0589 42.3249 58.1315 39.6301C58.2523 36.021 58.059 32.436 58.3007 28.851C58.349 28.2254 58.3732 27.5999 58.4216 26.9743V26.9983Z" fill="#D47F02" />
	</g>
	<g style="mix-blend-mode:screen" opacity="0.1">
		<path d="M44.546 45.0195C43.6274 45.2361 42.6846 45.3564 41.7419 45.4526C40.8474 45.5489 39.953 45.6451 39.0586 45.7413C39.0586 48.9173 39.1311 52.0693 39.1553 55.2453C39.5421 55.2453 39.9288 55.2453 40.3156 55.2212C42.1528 55.1731 43.99 55.2693 45.8272 55.3174C45.3437 51.8768 44.8602 48.4602 44.5218 45.0195H44.546Z" fill="#FDF9E3" />
	</g>
	<g style="mix-blend-mode:screen" opacity="0.2">
		<path d="M51.3142 50.2168C50.3231 48.3641 49.2836 46.5596 48.2441 44.731C48.8968 48.1957 48.921 51.7566 49.3078 55.2695C49.7429 55.2213 50.178 55.1492 50.6131 55.0289C51.4834 54.9567 52.3536 54.8604 53.1514 54.6198C52.5954 53.1281 52.0636 51.6123 51.3142 50.2168Z" fill="#FDF9E3" />
	</g>
	<g style="mix-blend-mode:screen" opacity="0.2">
		<path d="M58.1805 33.8314C54.9655 33.2299 52.1372 32.1953 49.1397 32.1953C49.2122 34.3367 49.3089 38.2104 49.043 40.3037C51.2186 40.3037 53.4909 40.9293 55.4973 41.603C56.3192 41.8676 57.1653 42.1564 57.9872 42.4692C58.0355 41.5308 58.0838 40.5924 58.1322 39.63C58.2047 37.6811 58.1805 35.7563 58.1805 33.8314Z" fill="#FDF9E3" />
	</g>
	<g style="mix-blend-mode:screen" opacity="0.5">
		<path d="M8.57545 8.977C9.01058 8.27924 9.51822 7.62961 10.0742 7.0281C9.15562 4.79047 8.28537 2.52878 7.4393 0.26709C6.52071 0.435513 5.60212 0.700179 4.75605 1.13327C3.35398 1.83102 2.43539 3.05811 1.83105 4.42956C3.40233 5.82507 5.5296 6.81155 7.17339 7.9424C7.65686 8.27924 8.14033 8.64015 8.59963 8.977H8.57545Z" fill="#FFEED9" />
		<path d="M49.1865 7.70162C49.4283 8.23095 49.7425 8.76028 50.0326 9.28962C52.8367 8.80841 55.5925 8.08659 58.3966 7.58132C57.9373 4.40533 56.777 1.54213 53.1993 0.820312C52.7159 2.11958 51.894 3.29855 51.1204 4.50157C50.4435 5.53617 49.7909 6.6189 49.2107 7.72568L49.1865 7.70162Z" fill="#FFDC7C" />
		<g style="mix-blend-mode:screen" opacity="0.9">
			<path d="M48.7762 46.1023C48.7762 46.1023 48.5828 46.2948 48.4619 46.391C48.5586 47.7143 49.4289 49.2542 49.7431 50.5054C50.1057 51.9971 50.4441 53.5129 50.7342 55.0047C52.4505 54.8363 54.1427 54.5956 55.4481 53.2723C56.2216 52.4783 56.7051 51.3956 57.0193 50.2888C54.4328 48.7008 51.6286 47.4256 49.0421 45.8857C48.9454 45.9579 48.8729 46.0301 48.7762 46.1023Z" fill="#FFDC7C" />
		</g>
		<path d="M10.1466 44.4421C10.1466 44.4421 10.0741 44.5624 10.0016 44.6106C7.36667 47.0166 4.99767 49.6873 2.60449 52.3099C4.07907 54.4273 6.73816 55.8949 9.27637 56.2799C10.0257 52.5746 10.6784 48.8452 11.0894 45.0677C10.7751 44.8512 10.4609 44.6587 10.1224 44.4421H10.1466Z" fill="#FFDC7C" />
	</g>
	<path d="M9.03532 6.40253C8.28594 4.38145 7.29482 2.48067 6.47293 0.483643C5.86859 0.628006 5.28843 0.84455 4.73244 1.13328C4.68409 1.13328 4.65992 1.1814 4.63574 1.1814C6.18284 2.86563 7.65743 4.59799 9.03532 6.40253Z" fill="#FFF6E6" />
	<path d="M51.0977 8.73635C51.7987 8.30326 52.5239 7.87017 53.2733 7.43708C54.627 6.47466 55.9324 5.39194 57.1894 4.28516C55.1105 5.70473 52.9832 7.10024 51.0977 8.73635Z" fill="#FFF6E6" />
	<path d="M56.7304 2.93781C56.1745 2.19194 55.4251 1.59043 54.434 1.1814C52.8385 3.03406 51.7024 5.39199 50.397 7.38901C50.3486 7.46119 50.3003 7.53337 50.252 7.60556C52.2584 5.89726 54.5307 4.45363 56.7304 2.93781Z" fill="#FFF6E6" />
	<path d="M53.4907 50.2648C54.2159 51.1791 54.9169 52.0934 55.6904 52.9596C55.9564 52.6468 56.1981 52.2859 56.3673 51.925C55.5937 51.5159 54.8444 51.0588 54.1675 50.5054C53.5632 50.0001 52.9105 49.5189 52.2578 49.0618C52.7171 49.4467 53.1522 49.8317 53.4907 50.2648Z" fill="#FFF6E6" />
	<path d="M3.93468 53.7776C4.15225 53.4889 4.32146 53.2483 4.41815 53.104C5.53013 51.4197 6.69046 49.7595 7.82661 48.0994C6.25534 49.7355 4.68406 51.3716 3.16113 53.0318C3.40287 53.2964 3.6446 53.537 3.91051 53.7776H3.93468Z" fill="#FFF6E6" />
	<g style="mix-blend-mode:multiply" opacity="0.6">
		<path d="M58.6876 10.8056C58.4217 6.37842 57.9624 1.44601 52.7409 0.700136C50.7829 0.411409 48.8006 0.483591 46.8426 0.483591C43.7242 0.483591 40.6058 0.483591 37.5116 0.363288C30.8156 0.170804 24.4096 0.122683 18.2695 0.0745621C15.5379 0.0505016 12.7822 -0.0216799 10.0505 0.0264411C8.21336 0.0745621 6.37618 0.291107 4.73238 1.10916C3.04024 1.95128 2.02495 3.5874 1.44479 5.31976C0.937148 6.85963 0.961321 8.44762 1.03384 10.0356C0.840454 14.3665 0.888801 18.7455 0.840454 23.0764C0.792107 28.2013 0.81628 33.3503 0.719586 38.4752C0.671239 40.8571 0.719586 43.2151 0.912974 45.5971C1.05801 47.4738 1.2514 49.543 2.0733 51.2994C3.42702 54.1867 6.98052 56.1837 10.1472 56.3521C13.0964 56.4724 15.828 56.2078 18.6321 56.0153C22.234 55.7506 25.0864 55.8468 28.6883 55.6544C32.5802 55.4378 36.4722 55.2935 40.3641 55.2213C42.2013 55.1732 44.0385 55.2694 45.8756 55.3175C47.4227 55.3656 49.1149 55.4138 50.6378 55.0047C52.4025 54.8363 54.143 54.6198 55.4725 53.2724C56.8504 51.8528 57.3097 49.5911 57.5514 47.6903C57.8899 45.0196 58.1074 42.3248 58.1799 39.6301C58.3008 36.021 58.1074 32.436 58.3492 28.8509C58.5909 25.0253 58.8085 21.1997 58.8568 17.35C58.8568 15.1605 58.8568 12.9951 58.7359 10.8056H58.6876ZM57.3097 38.7398C57.2372 41.0496 57.1405 43.3354 56.9713 45.6452C56.8262 47.7625 56.5361 49.952 55.4725 51.8047C54.3122 53.8498 51.5322 54.2829 49.405 54.4032C46.5767 54.5957 43.7 54.4032 40.8717 54.4273C36.9798 54.4995 33.0879 54.6438 29.1959 54.8363C25.715 55.0288 23.0559 54.8844 19.5749 55.2213C18.0761 55.3656 14.1359 55.6784 12.6371 55.6544C9.47038 55.5581 6.83548 54.8844 5.38507 53.922C3.78962 52.8633 2.75016 51.2753 2.26669 49.4227C1.13054 45.0196 1.42062 40.1353 1.51731 35.636C1.58983 31.1367 1.51731 26.6133 1.51731 22.114C1.54148 18.4327 1.78322 14.6793 1.66235 10.974C1.7107 9.60253 1.63818 8.23108 1.83157 6.85963C2.19417 4.47764 3.54788 2.38437 5.84436 1.51819C7.58485 0.868559 9.5429 0.89262 11.3801 0.89262C14.1842 0.89262 16.9883 0.940741 19.7683 0.988862C25.6666 1.06104 31.5649 1.13323 37.4633 1.30165C40.4124 1.39789 43.3616 1.44601 46.3349 1.42195C48.2688 1.42195 50.2027 1.51819 52.1366 1.71068C55.1099 2.02346 56.7054 3.05807 57.3822 6.06563C57.9382 8.59199 57.914 11.1665 58.0107 13.7169C58.325 22.0418 57.5273 30.4389 57.2855 38.7398H57.3097Z" fill="#D47F02" />
	</g>
	<path d="M52.5714 25.1218C52.4747 22.1142 52.4747 19.3232 52.4022 16.3397C52.3538 13.6208 52.4022 11.0945 51.967 8.39969C51.4836 5.17558 48.6553 5.2237 45.8753 5.19964C36.1092 4.14098 26.1498 4.76655 16.3595 4.76655C13.4587 4.76655 10.1469 4.88686 7.97131 7.0523C6.40003 8.61624 6.25499 10.8298 6.44838 13.0674C6.44838 17.1818 6.1583 20.0931 6.1583 23.6059C6.1583 27.9128 6.10995 32.1955 6.40003 36.4783C6.5209 38.3069 6.69011 40.1355 6.93185 41.9641C7.14941 43.504 7.27028 45.1642 7.89879 46.6078C8.7932 48.7251 10.7754 49.8319 13.0719 49.7597C13.1444 49.7597 13.1928 49.7357 13.2411 49.6875C15.6826 49.9763 18.2692 49.8319 20.7107 49.856C23.8775 49.88 27.0684 49.9041 30.2351 49.9041C33.4502 49.9041 36.6411 49.8319 39.832 49.5432C41.8625 49.3507 44.6425 49.471 46.6972 49.3507C48.341 49.2545 49.7673 48.8695 50.9759 47.5462C52.1846 46.2469 52.2329 43.7687 52.3538 42.0844C52.7164 36.4543 52.7889 30.7519 52.6197 25.0977L52.5714 25.1218Z" fill="url(#paint1_radial_2173_8537)" />
	<path style="mix-blend-mode:multiply" opacity="0.9" d="M52.5714 25.1218C52.4747 22.1142 52.4747 19.3232 52.4022 16.3397C52.3538 13.6208 52.4022 11.0945 51.967 8.39969C51.4836 5.17558 48.6553 5.2237 45.8753 5.19964C36.1092 4.14098 26.1498 4.76655 16.3595 4.76655C13.4587 4.76655 10.1469 4.88686 7.97131 7.0523C6.40003 8.61624 6.25499 10.8298 6.44838 13.0674C6.44838 17.1818 6.1583 20.0931 6.1583 23.6059C6.1583 27.9128 6.10995 32.1955 6.40003 36.4783C6.5209 38.3069 6.69011 40.1355 6.93185 41.9641C7.14941 43.504 7.27028 45.1642 7.89879 46.6078C8.7932 48.7251 10.7754 49.8319 13.0719 49.7597C13.1444 49.7597 13.1928 49.7357 13.2411 49.6875C15.6826 49.9763 18.2692 49.8319 20.7107 49.856C23.8775 49.88 27.0684 49.9041 30.2351 49.9041C33.4502 49.9041 36.6411 49.8319 39.832 49.5432C41.8625 49.3507 44.6425 49.471 46.6972 49.3507C48.341 49.2545 49.7673 48.8695 50.9759 47.5462C52.1846 46.2469 52.2329 43.7687 52.3538 42.0844C52.7164 36.4543 52.7889 30.7519 52.6197 25.0977L52.5714 25.1218ZM51.7253 41.0258C51.6528 42.6859 51.5561 44.8754 50.7825 46.3913C49.2838 49.2545 45.4402 48.5086 42.7086 48.7251C38.72 49.0379 34.7313 49.3748 30.7186 49.3748C27.6969 49.3748 24.6994 49.3748 21.6777 49.3507C18.801 49.3507 15.8035 49.0138 12.9269 49.2785C11.8149 49.062 10.7754 48.9176 9.80849 48.268C8.7932 47.5943 8.35808 46.3672 8.04383 45.2604C7.07689 41.6754 6.93185 37.7295 6.78681 34.0241C6.54507 28.1293 7.14941 21.8495 7.19775 15.9066C7.27028 16.5803 6.76263 8.90496 8.8899 7.1726C11.4281 5.1034 15.6343 5.56055 18.656 5.53649C23.3698 5.53649 28.0836 5.39213 32.7975 5.39213C35.7466 5.39213 38.6958 5.51243 41.6208 5.68085C43.1437 5.75303 44.6666 5.82522 46.1896 5.87334C47.8817 5.94552 49.5739 5.75303 50.565 7.43727C51.7011 9.33805 51.7253 11.9125 51.7495 14.0539C51.822 17.8074 51.5803 21.633 51.7495 25.3864C51.9187 29.0436 51.967 32.7008 51.7495 36.334C51.677 37.4407 51.7495 39.1972 51.677 41.0258H51.7253Z" fill="url(#paint2_linear_2173_8537)" />
	<path style="mix-blend-mode:screen" d="M9.25414 23.6538C8.96406 20.5018 9.42336 14.4867 9.66509 12.2491C9.90683 10.0114 9.49588 8.59187 14.0163 8.08659C18.5368 7.58132 21.8002 7.50914 24.0725 7.58132C26.3206 7.67757 27.6743 9.00089 25.2328 9.84301C22.8155 10.6851 15.4184 14.8957 11.188 23.341C10.6804 24.3515 9.52005 26.517 9.25414 23.6778V23.6538Z" fill="url(#paint3_linear_2173_8537)" />
	<path style="mix-blend-mode:screen" d="M28.3989 7.50916C31.1547 7.43696 33.2578 7.43696 32.9194 8.42372C32.5809 9.43455 31.8316 9.24201 29.8252 9.09761C28.7374 9.00134 27.8188 9.33828 27.7221 8.85694C27.6254 8.35152 27.432 7.5573 28.3989 7.53323V7.50916Z" fill="url(#paint4_linear_2173_8537)" />
	<path style="mix-blend-mode:multiply" opacity="0.5" d="M8.9882 40.4C7.99709 31.233 11.333 26.3968 16.1919 32.8931C21.0508 39.3895 23.5648 39.7263 27.4084 39.5579C31.252 39.3895 37.6096 38.3789 40.9697 32.8931C44.3057 27.3833 49.8414 26.2284 49.5029 33.3984C49.1645 40.5684 52.8389 46.7279 39.8094 46.5595C31.9288 46.4633 21.7276 46.3911 14.8624 46.7279C11.1638 46.8964 9.49585 44.8272 9.01238 40.4H8.9882Z" fill="url(#paint5_radial_2173_8537)" />
	<path style="mix-blend-mode:screen" d="M18.2695 47.3052C23.9986 46.3909 39.8806 47.5699 43.4825 46.9202C47.0843 46.2706 49.6467 45.645 49.9126 41.7953C50.1544 37.9456 49.6467 33.0854 49.6467 30.535C49.6467 27.9846 51.3147 21.8251 51.4597 31.0403C51.5806 40.2555 51.1213 43.3833 50.9521 44.8751C50.7829 46.3668 50.1785 48.3398 44.5219 48.3398C38.8653 48.3398 34.8767 48.9894 28.0598 48.7248C21.2429 48.4601 4.00718 49.615 18.2937 47.3052H18.2695Z" fill="url(#paint6_radial_2173_8537)" />
	<path style="mix-blend-mode:screen" opacity="0.6" d="M41.4275 45.958C35.6501 45.4768 19.9131 47.8828 16.2629 47.5219C12.6127 47.161 10.6305 46.5836 9.44602 42.9264C7.34292 36.3097 8.5516 34.3849 8.35821 31.8345C8.16482 29.2841 6.47268 23.1246 7.07701 32.3157C7.68135 41.5309 8.38238 44.5866 8.67246 46.0542C8.96255 47.5219 9.71192 49.4468 15.3443 49.0137C21.0009 48.5806 25.0137 48.9174 31.7823 48.1234C38.5751 47.3295 55.8349 47.161 41.4275 45.958Z" fill="url(#paint7_radial_2173_8537)" />
	<path style="mix-blend-mode:screen" opacity="0.7" d="M35.5059 5.15126C35.5059 5.15126 45.417 5.96932 47.8585 6.08962C50.3 6.20992 50.7835 7.84604 50.9044 13.9815C51.0252 20.141 51.8471 37.9698 51.8471 37.9698C51.8471 37.9698 51.557 14.992 51.6779 11.792C51.7988 8.59191 51.8471 5.94525 48.6321 5.56029C45.417 5.17532 35.5059 5.1272 35.5059 5.1272V5.15126Z" fill="url(#paint8_linear_2173_8537)" />
	<path d="M6.69027 37.248C6.69027 37.248 6.47271 23.3651 6.59358 19.9245C6.71444 16.4597 5.65081 9.6025 8.14068 7.12426C10.6547 4.64603 14.3533 5.24754 18.6078 5.24754C22.8623 5.24754 37.9224 4.98288 43.5548 5.41597C43.5548 5.41597 27.9146 5.53627 24.6995 5.92124C21.4844 6.3062 15.7312 5.82499 13.2896 6.35433C10.8481 6.8596 7.7539 7.7739 7.63304 13.789C7.51217 19.8042 7.36713 24.496 7.12539 27.1907C6.85948 29.8855 6.69027 37.2721 6.69027 37.2721V37.248Z" fill="white" />
	<defs>
		<linearGradient id="paint0_linear_2173_8537" x1="3.20945" y1="-13.9527" x2="44.3424" y2="51.2571" gradientUnits="userSpaceOnUse">
			<stop offset="0.14" stop-color="#EAC991" />
			<stop offset="0.51" stop-color="#D5A76F" />
			<stop offset="1" stop-color="#A14E01" />
		</linearGradient>
		<radialGradient id="paint1_radial_2173_8537" cx="0" cy="0" r="1" gradientUnits="userSpaceOnUse" gradientTransform="translate(29.389 27.2631) scale(23.0373 22.9297)">
			<stop stop-color="#FDF9E3" />
			<stop offset="0.9" stop-color="#EAC991" />
		</radialGradient>
		<linearGradient id="paint2_linear_2173_8537" x1="-15.4044" y1="-21.3632" x2="46.6976" y2="45.8392" gradientUnits="userSpaceOnUse">
			<stop stop-color="#FDF9E3" />
			<stop offset="0.37" stop-color="#EAC991" />
			<stop offset="0.94" stop-color="#D47F02" />
		</linearGradient>
		<linearGradient id="paint3_linear_2173_8537" x1="11.7682" y1="9.98738" x2="19.3203" y2="18.2032" gradientUnits="userSpaceOnUse">
			<stop offset="0.14" stop-color="white" />
			<stop offset="0.96" />
		</linearGradient>
		<linearGradient id="paint4_linear_2173_8537" x1="25.764" y1="3.63431" x2="33.9928" y2="12.4069" gradientUnits="userSpaceOnUse">
			<stop offset="0.14" stop-color="white" />
			<stop offset="0.96" />
		</linearGradient>
		<radialGradient id="paint5_radial_2173_8537" cx="0" cy="0" r="1" gradientUnits="userSpaceOnUse" gradientTransform="translate(28.5687 11.3349) scale(41.1674 40.9751)">
			<stop offset="0.71" stop-color="white" />
			<stop offset="0.94" stop-color="#D47F02" />
		</radialGradient>
		<radialGradient id="paint6_radial_2173_8537" cx="0" cy="0" r="1" gradientUnits="userSpaceOnUse" gradientTransform="translate(42.6364 40.063) scale(22.9648 22.8575)">
			<stop offset="0.14" stop-color="white" />
			<stop offset="0.96" />
		</radialGradient>
		<radialGradient id="paint7_radial_2173_8537" cx="0" cy="0" r="1" gradientUnits="userSpaceOnUse" gradientTransform="translate(15.529 42.333) rotate(175.561) scale(15.8574 15.7841)">
			<stop offset="0.14" stop-color="white" />
			<stop offset="0.96" />
		</radialGradient>
		<linearGradient id="paint8_linear_2173_8537" x1="55.7149" y1="7.43701" x2="34.3896" y2="32.6548" gradientUnits="userSpaceOnUse">
			<stop offset="0.04" stop-color="#FFF6FF" />
			<stop offset="0.18" stop-color="#FCD9B5" />
			<stop offset="0.95" stop-color="#E12100" />
		</linearGradient>
	</defs>
</svg>
