<svg width="85" height="84" viewBox="0 0 85 84" fill="none" xmlns="http://www.w3.org/2000/svg">
	<rect x="0.5" width="84" height="84" rx="42" fill="#22C55E" fill-opacity="0.2" />
	<path d="M42.9993 48.6667C33.3993 48.6667 31.6993 39.1001 31.3993 31.5101C31.3143 29.4001 31.2726 28.3434 32.066 27.3684C32.8576 26.3917 33.806 26.2317 35.7043 25.9117C38.1157 25.5167 40.5558 25.3233 42.9993 25.3334C45.9726 25.3334 48.421 25.5951 50.2943 25.9117C52.1926 26.2317 53.141 26.3917 53.9343 27.3684C54.7276 28.3451 54.6843 29.4001 54.601 31.5101C54.301 39.1001 52.601 48.6667 43.001 48.6667H42.9993Z" stroke="#20AD49" stroke-width="1.5" />
	<path d="M43 48.6667V53.6667" stroke="#20AD49" stroke-width="1.5" stroke-linecap="round" />
	<path d="M48.8327 58.6667H37.166L37.7327 55.84C37.8082 55.4623 38.0121 55.1224 38.3099 54.8781C38.6077 54.6339 38.9809 54.5002 39.366 54.5H46.6327C47.0178 54.5002 47.391 54.6339 47.6888 54.8781C47.9866 55.1224 48.1905 55.4623 48.266 55.84L48.8327 58.6667Z" stroke="#20AD49" stroke-width="1.5" stroke-linecap="round" stroke-linejoin="round" />
	<path d="M54.6663 30.3334L56.248 30.86C57.898 31.41 58.723 31.685 59.1947 32.34C59.6663 32.995 59.6663 33.8667 59.6663 35.6034V35.725C59.6663 37.1584 59.6663 37.8767 59.3213 38.4634C58.9763 39.05 58.348 39.3984 57.0947 40.0967L52.1663 42.8334M31.333 30.3334L29.7513 30.86C28.1013 31.41 27.2763 31.685 26.8047 32.34C26.333 32.995 26.333 33.8667 26.333 35.6034V35.725C26.333 37.1584 26.333 37.8767 26.678 38.4634C27.023 39.05 27.6513 39.3984 28.9047 40.0967L33.833 42.8334M41.5763 32.0384C42.2097 30.9 42.5263 30.3334 42.9997 30.3334C43.473 30.3334 43.7897 30.9 44.423 32.0384L44.5863 32.3317C44.7663 32.655 44.8563 32.815 44.9963 32.9217C45.138 33.0284 45.313 33.0684 45.663 33.1467L45.9797 33.22C47.2097 33.4984 47.8247 33.6367 47.9713 34.1067C48.118 34.5767 47.698 35.0684 46.8597 36.0484L46.643 36.3017C46.4047 36.58 46.2847 36.7184 46.2313 36.8917C46.178 37.065 46.1963 37.25 46.2313 37.6217L46.2647 37.96C46.3913 39.2684 46.4547 39.9234 46.073 40.2134C45.6897 40.5034 45.113 40.2384 43.9613 39.7084L43.6647 39.5717C43.3363 39.4217 43.173 39.3467 42.9997 39.3467C42.8263 39.3467 42.663 39.4217 42.3347 39.5717L42.038 39.7084C40.8863 40.24 40.3097 40.5034 39.9263 40.2134C39.543 39.9234 39.608 39.2684 39.7347 37.96L39.768 37.6217C39.803 37.25 39.8213 37.065 39.768 36.8917C39.7147 36.7184 39.5947 36.58 39.3563 36.3017L39.1397 36.0484C38.3013 35.0684 37.8813 34.5784 38.028 34.1067C38.1747 33.6367 38.7897 33.4984 40.0197 33.22L40.3363 33.1467C40.6863 33.0684 40.8613 33.03 41.003 32.9217C41.143 32.815 41.233 32.655 41.413 32.3317L41.5763 32.0384Z" stroke="#20AD49" stroke-width="1.5" />
	<path d="M53 58.6667H33" stroke="#20AD49" stroke-width="1.5" stroke-linecap="round" />
</svg>
