<svg width="85" height="84" viewBox="0 0 85 84" fill="none" xmlns="http://www.w3.org/2000/svg">
	<rect x="0.5" width="84" height="84" rx="42" fill="#FEF5E6" />
	<path d="M54.25 33.5625L52.6 31.643C51.201 30.1736 49.5176 29.0042 47.6523 28.206C45.7871 27.4078 43.7789 26.9975 41.75 27C33.4687 27 26.75 33.7188 26.75 42C26.75 50.2813 33.4687 57 41.75 57C44.8523 56.9998 47.8784 56.0381 50.4117 54.2473C52.945 52.4565 54.861 49.9246 55.8961 47" stroke="#F59E0B" stroke-width="1.5" stroke-miterlimit="10" stroke-linecap="round" />
	<path d="M59.2504 29.611V38.25C59.2504 38.5816 59.1188 38.8995 58.8843 39.1339C58.6499 39.3683 58.332 39.5 58.0004 39.5H49.3614C48.2473 39.5 47.6895 38.154 48.477 37.3665L57.1169 28.7266C57.9044 27.9375 59.2504 28.4969 59.2504 29.611Z" fill="#F59E0B" />
</svg>
